<?xml version="1.0" standalone="no"?>
<!DOCTYPE svg PUBLIC "-//W3C//DTD SVG 20010904//EN"
 "http://www.w3.org/TR/2001/REC-SVG-20010904/DTD/svg10.dtd">
<svg version="1.0" xmlns="http://www.w3.org/2000/svg"
 width="1319.000000pt" height="1302.000000pt" viewBox="0 0 1319.000000 1302.000000"
 preserveAspectRatio="xMidYMid meet">
<metadata>
Created by potrace 1.15, written by Peter Selinger 2001-2017
</metadata>
<g transform="translate(0.000000,1302.000000) scale(0.100000,-0.100000)"
fill="#000000" stroke="none">
<path d="M6636 12393 c-3 -4 -29 -6 -56 -4 -44 2 -50 0 -50 -17 0 -25 -49 -34
-82 -16 -30 17 -41 17 -32 2 6 -9 3 -9 -9 0 -19 16 -213 24 -197 8 20 -20 9
-26 -12 -6 -12 11 -27 20 -32 20 -6 -1 0 -9 12 -20 l24 -20 -39 4 c-21 3 -58
7 -83 10 -45 6 -45 6 -15 -8 l30 -14 -30 -1 c-16 0 -47 3 -67 8 -34 8 -37 7
-28 -10 7 -12 7 -20 0 -24 -5 -3 -10 -2 -10 3 0 11 -105 10 -116 -1 -7 -7 10
-11 34 -8 6 1 20 -3 30 -8 13 -8 7 -10 -30 -11 -27 0 -48 -5 -51 -12 -4 -10
-7 -10 -14 -1 -11 15 -57 17 -103 5 l-35 -10 40 -2 c22 -1 36 -3 30 -5 -5 -1
-37 -11 -70 -20 -33 -10 -64 -24 -68 -32 -5 -8 -26 -13 -51 -13 -41 0 -76 -11
-151 -45 -16 -7 -69 -26 -117 -42 -49 -15 -88 -31 -88 -35 0 -5 -6 -8 -14 -8
-17 0 -104 -66 -135 -102 -13 -16 -30 -27 -38 -26 -9 2 -24 -12 -35 -31 -11
-19 -30 -43 -44 -53 -28 -22 -32 -43 -7 -34 14 6 14 3 -3 -16 -10 -13 -21 -25
-24 -28 -3 -3 -17 -21 -30 -40 -13 -19 -30 -41 -37 -48 -7 -7 -13 -21 -13 -30
0 -25 -54 -91 -120 -148 -55 -48 -120 -122 -120 -137 0 -9 -4 -19 -10 -22 -5
-3 -10 -14 -10 -24 0 -9 -20 -39 -45 -67 -24 -27 -43 -54 -40 -61 2 -6 -2 -14
-10 -16 -7 -3 -20 -19 -29 -36 -9 -17 -23 -44 -31 -60 -9 -16 -22 -34 -30 -41
-8 -7 -15 -21 -15 -32 0 -20 -44 -81 -52 -73 -2 2 -5 -5 -5 -17 -1 -11 -9 -28
-17 -37 -9 -10 -13 -20 -10 -24 4 -3 -1 -22 -10 -41 -9 -19 -16 -48 -16 -65 0
-17 -5 -31 -11 -31 -7 0 -9 -12 -5 -35 5 -24 1 -47 -13 -77 -10 -24 -22 -61
-25 -83 -5 -33 -4 -35 4 -15 8 20 9 13 5 -28 -3 -34 -1 -50 6 -46 10 6 9 -10
-8 -103 -3 -21 -5 -45 -4 -54 1 -9 -5 -22 -14 -29 -17 -14 -21 -45 -4 -35 12
8 -11 -37 -25 -46 -4 -4 -3 -10 3 -13 7 -5 8 -13 2 -24 -5 -10 -12 -39 -14
-66 -4 -29 -13 -53 -23 -60 -12 -10 -14 -15 -5 -20 6 -4 19 -2 27 5 14 11 15
8 9 -27 -3 -21 -8 -49 -11 -61 -2 -13 0 -23 6 -23 5 0 10 -9 10 -19 0 -11 6
-26 13 -33 15 -14 29 -71 17 -63 -12 8 -10 -48 3 -74 9 -19 9 -25 0 -28 -8 -3
-5 -11 8 -24 13 -13 19 -33 19 -63 0 -25 4 -47 9 -50 5 -3 9 -32 8 -63 0 -71
11 -112 25 -92 6 9 7 -4 3 -36 -4 -35 -2 -44 4 -30 l10 20 1 -20 c1 -11 1 -28
0 -39 -1 -10 3 -16 8 -12 11 6 26 -89 17 -104 -3 -6 -1 -10 6 -10 7 0 9 -10 6
-30 -4 -16 -2 -30 3 -30 5 0 7 -15 4 -32 -4 -25 -3 -29 5 -18 16 24 26 -14 26
-107 0 -44 3 -77 6 -71 8 12 14 3 23 -36 7 -28 6 -28 -23 -23 -16 3 -58 20
-94 37 -46 21 -79 30 -116 30 -46 0 -57 -4 -86 -33 -23 -23 -36 -49 -45 -88
-11 -50 -10 -66 8 -140 12 -46 31 -129 44 -184 12 -55 37 -134 56 -175 50
-111 69 -165 92 -265 33 -145 71 -256 107 -313 49 -78 164 -191 202 -198 17
-4 34 -10 36 -14 3 -5 23 -6 44 -3 39 5 40 5 45 -28 7 -48 13 -83 30 -174 8
-44 12 -83 10 -87 -2 -3 -1 -8 4 -10 9 -3 42 -150 42 -186 0 -13 4 -20 10 -17
11 7 8 -51 -3 -62 -14 -13 -6 -25 8 -13 13 10 15 9 15 -9 0 -11 5 -21 10 -21
6 0 10 -12 10 -26 0 -14 7 -32 15 -41 9 -8 13 -23 10 -33 -3 -10 -1 -21 5 -25
6 -3 7 -11 4 -17 -5 -7 -1 -9 9 -5 17 6 21 -2 33 -65 3 -22 10 -35 17 -31 6 4
7 -4 3 -22 -7 -26 -6 -27 10 -14 16 13 17 12 11 -5 -6 -14 -4 -17 9 -12 13 5
15 2 11 -14 -3 -11 -1 -20 4 -20 4 0 6 -7 3 -15 -4 -10 0 -15 14 -15 11 0 22
-7 26 -15 3 -8 0 -15 -7 -15 -7 0 -8 -3 -2 -8 18 -13 35 -51 25 -57 -5 -3 -5
-17 2 -35 5 -16 8 -54 6 -84 -1 -30 0 -52 5 -49 4 2 7 -5 7 -16 0 -10 -6 -22
-12 -24 -10 -4 -10 -7 0 -14 8 -6 15 -62 22 -169 5 -87 12 -181 15 -209 2 -27
8 -134 11 -237 5 -155 4 -192 -8 -210 -12 -20 -62 -134 -63 -148 -1 -3 -11
-26 -23 -52 -12 -26 -22 -49 -22 -51 0 -3 -7 -22 -16 -43 -15 -34 -18 -37 -25
-19 -7 18 -8 18 -10 -5 -1 -14 -2 -32 -1 -40 1 -15 -37 -47 -51 -42 -5 1 -6
-2 -2 -8 10 -15 -5 -51 -17 -44 -7 5 -9 1 -5 -9 3 -9 2 -19 -2 -21 -7 -5 -8
12 -2 47 0 5 6 5 12 1 7 -4 10 -1 7 7 -5 15 -39 13 -49 -2 -3 -6 -15 -6 -31 0
-31 11 -98 -5 -98 -25 0 -16 -23 -24 -72 -24 -24 0 -49 -8 -65 -19 -20 -17
-29 -18 -51 -9 -15 6 -40 16 -57 22 -44 17 -75 39 -75 53 0 7 -9 13 -20 13
-11 0 -20 5 -20 10 0 13 -86 13 -110 0 -13 -7 -21 -7 -25 0 -7 12 -102 12
-130 0 l-20 -9 20 -1 c19 -1 19 -2 -1 -10 -27 -11 -175 -11 -211 0 -15 5 -21
9 -13 9 13 1 13 3 0 10 -8 5 -35 6 -60 2 -25 -4 -80 -2 -122 4 -59 8 -81 8
-94 -2 -25 -19 -141 -54 -157 -47 -7 2 -20 -2 -27 -11 -13 -16 -6 -19 33 -16
26 3 22 -47 -5 -72 -19 -17 -20 -19 -4 -13 16 6 18 3 12 -25 -5 -26 -4 -29 8
-20 9 8 22 8 38 2 13 -5 31 -5 39 -1 8 5 27 2 44 -5 l30 -13 -40 -1 c-56 -2
-74 -14 -57 -41 14 -23 16 -50 3 -50 -5 0 -11 9 -14 21 -3 12 -12 19 -19 17
-20 -7 -21 -36 -1 -41 17 -5 17 -5 0 -6 -10 0 -16 -5 -13 -9 2 -4 -24 -7 -59
-7 -46 0 -68 5 -82 18 -11 9 -25 17 -31 17 -7 0 -12 11 -12 25 0 20 -5 25 -25
25 -14 0 -25 -4 -25 -10 0 -5 7 -10 15 -10 8 0 15 -4 15 -10 0 -5 -6 -10 -14
-10 -8 0 -21 -3 -30 -6 -13 -5 -16 3 -16 49 0 54 -15 86 -22 50 -3 -13 -7 -10
-18 15 -8 17 -21 32 -27 32 -7 0 -13 5 -13 10 0 6 -18 10 -40 10 -22 0 -40 4
-40 9 0 5 -19 12 -42 17 -49 9 -53 9 -90 -1 -22 -6 -28 -4 -28 9 0 9 -3 16 -7
17 -65 8 -94 5 -109 -12 -13 -14 -31 -19 -71 -19 -36 0 -53 -4 -53 -12 0 -7
-12 -14 -27 -15 -48 -2 -85 -15 -129 -45 -61 -41 -62 -48 -7 -49 39 0 44 -2
26 -9 -13 -5 -23 -14 -23 -20 0 -6 -31 -10 -79 -10 -64 0 -83 4 -105 21 -16
12 -48 23 -81 26 -53 6 -78 23 -32 23 15 0 18 3 9 9 -7 4 -35 6 -63 3 -33 -3
-49 -1 -49 7 0 9 -5 9 -21 1 -17 -9 -24 -8 -38 9 -30 35 -51 27 -51 -19 0 -44
25 -58 33 -18 4 21 4 20 6 -3 1 -23 -6 -30 -48 -48 -27 -11 -57 -21 -65 -21
-15 0 -17 -5 -15 -27 0 -5 -10 -11 -23 -15 -37 -10 -98 -9 -98 2 0 6 -4 10
-10 10 -17 0 -11 -70 7 -89 45 -45 91 -71 126 -71 26 0 37 -4 37 -15 0 -9 9
-15 21 -15 15 0 19 5 15 15 -5 14 3 15 57 9 34 -4 72 -10 83 -15 14 -5 29 -2
43 7 14 10 21 11 21 3 0 -6 16 1 35 15 27 21 55 30 120 39 47 6 85 15 85 19 0
4 -19 9 -42 11 -24 2 -2 4 47 5 l91 2 11 31 c11 29 14 30 29 18 13 -11 18 -11
21 -1 5 14 53 17 53 2 0 -5 -7 -10 -15 -10 -29 0 -15 -15 25 -28 55 -17 113
-15 155 5 33 16 36 16 52 0 16 -16 16 -17 -5 -17 -49 0 -16 -29 36 -32 18 0
12 -4 -18 -9 -43 -7 -42 -7 20 -7 92 1 100 0 100 -17 0 -12 13 -15 56 -15 41
0 64 -6 85 -21 21 -14 41 -20 70 -18 31 3 44 -1 55 -16 14 -19 15 -19 30 3
l15 22 27 -25 c15 -14 36 -25 47 -26 19 0 19 -1 -2 -11 -13 -6 -23 -17 -23
-25 0 -15 -18 -24 -53 -28 -33 -4 -34 -6 -7 -14 25 -7 25 -7 -10 -25 -19 -10
-44 -19 -54 -22 -21 -4 -63 -44 -46 -44 28 0 5 -18 -37 -29 -73 -18 -170 -16
-193 4 -10 9 -27 18 -37 20 -10 2 -20 4 -23 4 -3 1 2 5 10 11 8 5 11 12 7 16
-4 5 -21 -7 -37 -24 -34 -37 -52 -40 -80 -12 -22 22 -40 26 -40 10 0 -5 -18
-10 -40 -10 -22 0 -40 5 -40 10 0 6 -22 10 -49 10 -35 0 -51 -4 -55 -16 -8
-22 -23 -9 -31 26 -7 34 -25 41 -25 10 0 -23 -18 -27 -26 -5 -3 8 -21 19 -39
25 -18 6 -41 22 -49 36 -16 23 -46 33 -46 15 0 -6 -17 -3 -37 6 -21 9 -58 19
-83 22 -36 5 -44 10 -42 24 3 21 -16 22 -42 2 -29 -22 -39 -18 -32 10 6 24 5
25 -49 25 -31 0 -72 -7 -92 -15 -19 -8 -51 -15 -69 -15 -32 0 -34 -2 -34 -35
0 -22 -5 -35 -12 -35 -15 1 -64 42 -69 58 -3 8 -17 3 -42 -15 -42 -30 -47 -43
-14 -43 19 -1 20 -2 5 -10 -18 -11 -51 -3 -43 10 3 4 -2 13 -10 20 -13 10 -19
10 -33 -4 -11 -9 -36 -16 -60 -16 -38 0 -42 -3 -58 -40 -10 -22 -21 -40 -26
-40 -4 0 -8 -18 -8 -40 0 -22 4 -40 9 -40 5 0 15 -15 21 -32 10 -25 14 -29 17
-15 3 10 12 17 21 15 25 -5 25 -24 0 -36 l-23 -11 25 0 c23 -1 24 -2 6 -19
-12 -11 -20 -13 -23 -6 -6 17 -91 -10 -120 -38 -21 -20 -27 -21 -55 -10 -20 7
-37 8 -47 2 -12 -7 -13 -9 -2 -10 32 0 0 -11 -44 -15 -36 -3 -51 1 -66 16 -13
13 -27 18 -37 14 -19 -8 -27 -8 -64 1 -32 7 -81 -3 -74 -15 13 -20 -48 -18
-88 3 -55 28 -107 76 -83 76 20 0 22 13 6 41 -8 15 -14 18 -23 9 -8 -5 -21 -8
-29 -4 -14 5 -14 8 -2 20 7 8 23 14 34 14 26 0 26 9 4 49 -19 33 -49 47 -84
38 -12 -3 -33 -1 -48 5 -14 5 -54 9 -88 9 -53 -1 -63 2 -68 19 -4 11 -12 20
-20 20 -7 0 -20 3 -29 6 -10 4 -16 1 -16 -8 0 -18 -37 -41 -45 -28 -3 6 1 10
9 10 9 0 16 5 16 10 0 6 -4 10 -9 10 -5 0 -14 13 -20 30 -8 26 -15 30 -45 30
-19 0 -38 -5 -41 -10 -3 -5 -15 -10 -25 -10 -23 0 -35 -33 -21 -59 8 -14 8
-21 -2 -25 -8 -3 -7 -8 6 -16 9 -6 17 -18 17 -25 0 -19 76 -21 82 -3 3 8 16 7
46 -5 23 -9 51 -17 61 -17 10 0 24 -6 30 -14 6 -7 21 -12 34 -11 12 1 14 0 5
-2 -10 -2 -18 -11 -18 -20 0 -8 -11 -24 -25 -35 -13 -10 -24 -22 -23 -26 2 -4
-6 -21 -17 -39 -20 -34 -44 -50 -54 -35 -7 10 -51 10 -51 0 0 -4 9 -8 20 -8
17 0 20 -7 20 -44 0 -36 5 -48 27 -65 14 -12 23 -25 18 -29 -4 -4 -10 -1 -12
6 -3 6 -14 12 -25 12 -20 0 -21 -1 -3 -20 10 -11 24 -20 32 -20 7 0 13 -4 13
-10 0 -5 5 -10 11 -10 6 0 17 -6 25 -14 7 -8 22 -12 33 -9 10 3 29 -1 41 -7
18 -10 20 -14 9 -21 -10 -6 -6 -9 14 -9 15 0 27 -5 27 -11 0 -6 9 -8 23 -3 35
12 57 7 96 -20 42 -29 66 -33 75 -11 7 20 46 20 46 0 0 -9 -9 -15 -25 -15 -27
0 -31 -10 -15 -40 8 -15 6 -21 -9 -30 -27 -14 -29 -13 -33 10 -3 19 -5 19 -42
-7 -28 -20 -34 -29 -22 -31 43 -9 2 -42 -51 -42 -24 0 -43 -4 -43 -10 0 -5
-11 -10 -25 -10 -18 0 -26 -7 -31 -24 -7 -30 -40 -40 -54 -18 -9 16 -11 16
-20 0 -6 -10 -23 -18 -39 -18 -17 0 -36 -10 -49 -25 -19 -22 -22 -37 -22 -110
0 -87 -5 -97 -40 -75 -10 6 -11 10 -2 10 7 0 12 15 12 40 l0 40 -50 0 -50 0 0
-40 c0 -28 4 -40 14 -40 8 0 16 -7 20 -15 3 -10 19 -15 44 -15 48 0 102 -18
102 -33 0 -8 29 -12 90 -12 95 0 90 -2 132 59 4 6 15 0 26 -14 17 -22 23 -23
46 -12 14 6 26 18 26 27 0 8 3 15 8 15 4 1 27 5 52 10 32 6 47 5 53 -3 5 -9
11 -7 21 6 15 19 56 16 56 -4 0 -5 5 -9 10 -9 6 0 10 6 10 14 0 8 12 18 28 24
21 7 33 5 52 -9 20 -15 33 -17 63 -10 27 7 39 5 45 -4 4 -6 14 -14 22 -17 8
-3 -21 -4 -65 -3 -45 1 -55 0 -22 -2 52 -4 97 -24 97 -44 0 -8 -47 -29 -65
-29 -8 0 -15 7 -15 15 0 11 -11 15 -36 15 -37 0 -75 -24 -51 -33 6 -3 -7 -6
-30 -6 -24 -1 -43 -5 -43 -9 0 -11 -70 -33 -82 -26 -11 7 -78 -17 -78 -28 0
-4 -9 -8 -20 -8 -13 0 -20 7 -20 20 0 13 -7 20 -20 20 -15 0 -20 -7 -20 -26 0
-26 1 -26 50 -22 l50 5 1 -38 c1 -22 2 -45 3 -51 1 -7 -6 -13 -15 -13 -21 0
-49 -24 -49 -41 0 -8 7 -14 15 -14 11 0 15 -11 15 -39 0 -36 3 -40 27 -43 l27
-3 -29 -19 c-28 -19 -29 -19 -46 3 -20 25 -49 28 -49 5 0 -9 10 -24 21 -33 18
-15 20 -21 10 -39 -6 -12 -22 -24 -34 -27 -39 -10 -180 -1 -184 12 -2 6 4 14
14 16 10 3 0 5 -22 5 -91 -3 -95 -1 -95 38 0 43 41 90 69 78 37 -15 51 -15 73
0 18 13 19 16 5 16 -9 0 -17 5 -17 10 0 6 -9 10 -21 10 -11 0 -18 4 -15 9 3 5
-6 12 -22 16 l-27 8 34 9 c18 5 30 12 26 16 -11 12 -135 18 -139 7 -2 -5 -18
4 -36 20 -22 20 -34 26 -37 18 -7 -19 -20 -16 -26 7 -6 25 -27 26 -34 2 -4
-16 -13 -18 -66 -15 -34 2 -56 0 -49 -3 6 -3 12 -12 12 -20 0 -17 -49 -63 -66
-64 -14 0 -13 -52 1 -62 5 -4 40 -10 78 -14 73 -7 92 -24 27 -24 -23 0 -40 -5
-40 -11 0 -8 20 -10 68 -5 60 6 69 5 82 -14 8 -12 26 -20 42 -20 23 0 28 4 28
24 0 20 -6 25 -32 29 -29 3 -27 4 10 5 42 2 42 2 42 -33 0 -19 -4 -35 -9 -35
-5 0 -11 -9 -14 -20 -7 -26 -27 -26 -34 0 -7 25 -23 26 -23 1 0 -11 -6 -22
-12 -25 -11 -5 -11 -7 0 -12 6 -3 12 -10 12 -15 0 -16 -26 -10 -44 10 -13 14
-28 18 -64 15 -37 -3 -41 -2 -17 5 l30 7 -38 5 c-25 3 -46 0 -60 -10 l-22 -16
30 -6 30 -6 -29 -8 c-20 -6 -31 -4 -34 3 -10 30 -22 -5 -22 -63 l0 -63 40 -7
c25 -4 40 -12 40 -21 0 -8 7 -14 15 -14 10 0 15 -7 13 -18 -2 -13 5 -18 36
-20 28 -2 40 -9 43 -23 3 -12 14 -19 28 -19 12 0 28 -7 35 -15 15 -18 42 -19
58 -3 9 9 12 8 12 -8 0 -27 35 -54 70 -54 17 0 30 -4 30 -10 0 -5 -9 -10 -20
-10 -16 0 -14 -6 16 -33 39 -36 40 -51 6 -95 -18 -23 -19 -23 -37 -6 -13 13
-20 15 -23 6 -2 -7 -22 -12 -52 -12 -32 0 -54 -6 -65 -16 -12 -13 -28 -15 -64
-11 -38 5 -53 2 -68 -12 -29 -27 -58 -41 -90 -42 -27 0 -27 -1 -5 -11 27 -14
28 -28 2 -35 -19 -5 -20 -14 -20 -235 0 -226 0 -230 23 -248 12 -11 30 -17 40
-14 9 3 17 0 17 -6 0 -6 -10 -11 -22 -10 -13 1 -31 2 -40 1 -17 -1 -18 -46
-18 -791 l0 -790 2290 0 2290 0 0 29 c0 17 -7 81 -15 143 -24 190 -34 339 -45
678 -6 179 -13 343 -16 365 -6 48 -20 311 -31 595 -10 261 -10 901 0 1318 l7
322 50 148 c53 160 62 206 85 423 19 186 29 226 77 327 22 46 37 86 34 90 -3
3 0 12 7 21 14 17 56 126 63 164 4 25 40 129 79 232 46 121 83 227 110 318 28
93 47 109 67 60 16 -41 32 -532 29 -910 -2 -305 -1 -332 15 -326 9 3 20 0 25
-8 7 -11 9 -11 9 4 0 9 8 17 18 17 9 0 23 9 30 20 7 11 19 20 27 20 12 0 13 4
6 18 -8 16 -6 17 24 14 42 -5 76 13 68 35 -4 11 -2 14 8 11 8 -3 15 -15 15
-28 1 -13 10 -30 20 -38 18 -14 18 -14 -1 -9 -55 16 -75 18 -75 11 0 -18 16
-32 39 -35 37 -6 39 -29 2 -29 -17 0 -31 -4 -31 -9 0 -5 -3 -18 -6 -28 -4 -13
-3 -15 4 -4 7 10 14 10 30 2 27 -14 52 -4 52 21 0 11 5 18 13 15 6 -2 11 -11
9 -21 -2 -9 4 -16 13 -16 18 0 20 -21 3 -38 -10 -10 -7 -16 10 -27 17 -12 20
-22 15 -45 -5 -27 -3 -30 19 -30 18 0 24 -6 26 -25 1 -18 -3 -25 -16 -25 -13
-1 -11 -6 11 -24 25 -20 27 -26 17 -50 -5 -15 -10 -29 -10 -32 0 -10 23 -3 37
12 10 10 19 12 26 5 6 -6 5 -15 -5 -25 -9 -8 -18 -13 -21 -10 -3 3 -18 -1 -34
-9 -24 -13 -26 -16 -10 -22 9 -4 23 -2 31 4 18 15 44 4 51 -20 5 -14 12 -18
25 -14 15 5 17 2 13 -14 -8 -30 5 -71 22 -71 8 0 15 7 15 16 0 9 9 18 20 21
24 6 26 26 5 43 -9 7 -13 20 -10 27 4 11 -3 14 -32 11 -20 -2 -38 2 -40 7 -4
14 90 6 100 -9 5 -8 10 -7 17 4 14 22 12 40 -5 40 -8 0 -14 6 -13 12 2 7 -7
14 -19 16 -24 4 -30 16 -13 27 6 3 23 -3 39 -14 36 -26 54 -27 49 -4 -2 10
-12 18 -23 18 -30 0 -25 30 5 31 14 0 35 5 47 10 20 8 20 11 8 42 -8 17 -21
32 -30 32 -18 0 -20 17 -2 23 6 2 1 2 -12 0 -47 -8 -115 61 -81 82 6 4 8 11 4
16 -4 6 -11 6 -20 -2 -11 -9 -14 -8 -14 5 0 9 -6 16 -12 16 -13 1 -55 50 -43
50 18 0 45 -22 39 -32 -5 -7 -1 -9 9 -5 10 3 17 2 17 -4 0 -6 9 -8 20 -4 14 4
20 2 20 -9 0 -8 7 -19 17 -24 10 -6 16 -22 16 -43 -1 -24 1 -28 6 -15 4 10 6
36 5 57 -2 41 12 55 18 17 2 -12 9 -23 17 -26 10 -3 12 2 7 21 -4 18 -1 27 10
31 11 4 18 -1 21 -14 3 -11 11 -20 17 -20 7 0 18 -16 25 -35 7 -19 16 -35 22
-35 5 0 8 -18 7 -39 -1 -28 -5 -38 -15 -34 -7 3 -13 -2 -13 -11 0 -9 7 -16 15
-16 8 0 15 -4 15 -10 0 -5 7 -7 15 -4 8 4 15 12 15 20 0 8 7 14 15 14 8 0 15
-7 15 -15 0 -8 7 -15 15 -15 9 0 12 6 9 15 -4 9 0 15 10 15 9 0 16 -3 15 -7
-2 -21 -17 -48 -28 -49 -6 -1 -18 -2 -26 -3 -10 -1 -15 -12 -15 -33 0 -30 1
-31 15 -12 13 18 14 16 15 -22 0 -34 3 -42 18 -40 13 1 17 -7 17 -29 0 -20 5
-30 15 -30 8 0 16 -9 16 -20 3 -37 5 -40 14 -19 10 26 50 39 50 17 0 -10 -6
-14 -20 -10 -14 4 -20 0 -20 -12 0 -23 28 -21 58 4 26 23 29 50 6 59 -13 5
-11 11 12 41 31 41 43 45 36 10 -3 -16 2 -33 13 -45 18 -19 17 -20 -8 -20 -15
0 -27 -5 -27 -12 0 -6 3 -8 7 -5 8 9 33 -12 33 -28 0 -6 -10 -11 -22 -11 -14
1 -22 -4 -20 -12 1 -7 -2 -22 -8 -32 -9 -16 -6 -25 12 -43 13 -13 31 -35 41
-50 9 -15 24 -27 32 -27 19 0 19 16 0 24 -8 3 -15 12 -15 21 0 17 11 20 26 5
6 -6 21 -6 42 -1 40 12 49 -2 18 -27 -25 -19 -43 -64 -37 -92 4 -21 49 -62 60
-56 10 7 3 -33 -9 -49 -17 -23 -19 -63 -5 -75 8 -7 14 -22 14 -34 -1 -15 -3
-16 -6 -5 -4 17 -40 32 -55 23 -18 -11 -8 -55 15 -64 12 -5 16 -9 10 -9 -7 -1
-13 -12 -13 -26 0 -22 -3 -24 -25 -15 -20 8 -25 6 -25 -6 0 -8 3 -13 8 -10 4
2 16 -2 27 -10 10 -8 14 -14 8 -14 -5 0 -8 -11 -6 -24 3 -13 0 -27 -6 -30 -7
-5 -11 2 -11 16 0 18 -2 20 -10 8 -8 -12 -10 -10 -10 10 0 20 -2 22 -11 10 -9
-12 -10 -10 -6 8 4 15 -3 31 -18 48 l-24 26 2 -27 c2 -23 -4 -29 -38 -43 -22
-9 -45 -22 -51 -30 -6 -8 -16 -12 -22 -8 -8 5 -12 0 -12 -13 0 -26 -20 -38
-34 -19 -6 8 -23 17 -38 20 -22 4 -28 1 -28 -13 0 -9 -3 -24 -6 -33 -4 -10 -1
-16 7 -16 20 0 39 -68 28 -94 -9 -20 -9 -20 -5 2 3 15 -3 30 -17 42 -67 63
-41 -29 40 -141 18 -26 33 -51 33 -57 0 -5 6 -15 14 -22 12 -9 21 -6 48 18
290 257 491 411 565 432 24 7 48 19 54 26 18 22 33 17 47 -16 10 -23 11 -38 3
-60 -7 -20 -7 -30 0 -30 6 0 8 -10 5 -22 -3 -13 1 -8 10 11 13 28 13 52 5 155
-5 66 -15 135 -22 151 -7 17 -13 37 -14 47 -1 9 -5 23 -8 32 -4 9 -2 16 3 16
6 0 10 23 10 51 0 43 -4 54 -25 71 -14 11 -25 25 -25 31 0 7 7 3 15 -7 23 -31
27 -14 14 63 -10 57 -10 90 0 152 27 179 61 257 176 410 41 55 75 104 75 109
0 5 11 21 24 37 23 28 23 28 3 48 -20 20 -20 20 -8 -2 7 -13 8 -23 2 -23 -5 0
-11 -6 -14 -12 -2 -7 -2 -2 0 12 3 22 2 23 -7 7 -6 -9 -10 -25 -9 -35 1 -9 -1
-25 -6 -35 -7 -17 -9 -17 -26 -1 -16 14 -23 15 -41 5 -13 -6 -15 -9 -5 -7 19
6 24 -9 5 -16 -21 -8 -37 2 -31 18 3 9 -2 14 -16 14 -12 0 -21 -6 -21 -15 0
-8 -9 -24 -20 -35 -29 -29 -25 -36 18 -33 29 2 33 1 17 -6 -11 -5 -32 -10 -46
-10 -18 -1 -28 -8 -32 -22 -3 -12 -10 -18 -16 -14 -7 4 -8 12 -1 24 5 10 7 21
4 24 -8 8 29 47 44 47 12 0 12 3 2 15 -14 17 -50 20 -50 5 0 -5 -4 -10 -10
-10 -5 0 -7 6 -4 14 5 13 -34 31 -45 21 -2 -3 1 -5 7 -5 7 0 12 -7 12 -15 0
-8 -9 -15 -21 -15 -31 0 -61 20 -55 36 3 8 2 14 -3 14 -5 0 -12 -11 -15 -25
-4 -16 -13 -25 -26 -25 -10 0 -22 -5 -26 -11 -4 -8 -9 -7 -15 2 -6 10 -28 13
-74 12 -36 -1 -65 2 -65 6 0 9 58 21 100 21 l25 0 -28 19 c-19 12 -25 21 -18
26 7 4 18 2 26 -5 9 -7 15 -8 20 0 3 5 -1 10 -9 10 -10 0 -16 9 -16 25 0 16
-6 25 -16 25 -10 0 -14 -6 -11 -14 9 -22 -19 -41 -30 -21 -8 14 -11 12 -21
-10 -12 -26 -38 -36 -28 -10 3 8 1 15 -4 15 -15 0 -12 -40 3 -40 6 0 4 -5 -6
-11 -11 -6 -32 -9 -47 -5 -23 4 -29 1 -32 -14 -3 -18 -5 -18 -35 -3 -18 8 -33
19 -33 24 0 14 27 10 43 -6 13 -13 16 -13 21 0 3 9 0 15 -9 15 -8 0 -15 6 -15
13 0 6 -14 19 -31 27 -36 18 -38 36 -4 33 16 -1 25 5 28 19 3 11 10 17 16 13
6 -3 11 1 11 11 0 14 -3 15 -12 6 -17 -17 -56 -15 -75 3 -14 14 -18 14 -39 0
-13 -8 -27 -15 -31 -15 -4 0 0 5 10 11 9 5 17 17 17 25 0 11 6 13 20 9 25 -8
25 0 -1 37 -24 33 -18 49 8 26 21 -18 43 -13 43 9 0 9 8 22 17 29 10 7 14 16
10 20 -4 5 -19 -5 -32 -21 -31 -39 -28 -7 3 35 20 27 52 44 37 20 -3 -5 3 -10
14 -10 14 0 19 -5 15 -15 -5 -12 -2 -12 25 1 17 8 33 19 36 25 4 5 15 9 26 9
20 0 26 24 9 35 -13 8 10 45 28 45 9 0 10 -5 2 -19 -15 -29 -12 -43 8 -39 9 2
16 10 14 17 -1 7 2 10 8 6 6 -3 8 -10 5 -15 -9 -14 14 -50 31 -50 23 0 61 -33
56 -48 -4 -14 24 -17 33 -3 3 5 -2 17 -11 26 -13 12 -14 19 -5 28 9 9 13 7 17
-10 5 -16 13 -21 40 -20 26 1 33 5 29 16 -3 8 0 18 7 23 8 5 3 6 -13 2 -15 -3
-30 -1 -33 5 -4 6 -23 11 -42 11 -19 0 -34 5 -34 11 0 7 -10 9 -25 5 -29 -7
-32 0 -9 25 15 16 14 19 -15 34 -17 8 -31 19 -31 24 0 5 -20 6 -44 4 -41 -5
-44 -4 -40 14 4 15 12 18 34 15 26 -4 28 -2 24 19 l-5 24 17 -23 c20 -27 44
-28 74 -2 28 24 39 25 46 5 7 -18 53 -19 76 -1 23 17 12 26 -23 19 -37 -7 -37
2 0 21 28 15 30 14 45 -9 10 -16 26 -25 41 -25 27 0 65 27 65 47 0 21 27 15
33 -8 3 -12 10 -18 16 -15 6 4 8 13 4 21 -7 20 11 19 27 0 11 -13 10 -18 -6
-30 -10 -8 -32 -14 -48 -12 -15 1 -29 -2 -30 -8 0 -6 16 -8 38 -7 23 2 36 0
32 -6 -3 -5 1 -13 10 -16 22 -9 26 -8 18 5 -5 9 1 10 20 5 18 -4 25 -3 21 4
-7 11 4 13 47 10 19 -1 28 5 33 19 3 12 13 21 21 21 9 0 12 -5 8 -12 -4 -7 -3
-8 4 -4 19 12 14 36 -8 36 -11 0 -20 5 -20 10 0 6 7 10 15 10 8 0 15 5 15 10
0 6 9 10 19 10 11 0 23 5 26 10 10 16 25 11 18 -6 -5 -13 -2 -15 15 -9 13 4
22 2 22 -4 0 -6 -5 -11 -12 -11 -6 0 -9 -3 -6 -6 4 -3 16 0 28 6 18 10 20 14
9 21 -12 8 -12 11 1 20 11 8 12 12 3 16 -21 8 -16 35 5 29 13 -4 25 3 41 25
29 39 21 48 -17 20 -17 -12 -39 -21 -51 -21 -21 0 -102 -38 -112 -52 -3 -5
-16 -4 -30 1 -24 10 -24 10 -2 10 23 1 23 1 3 21 -29 29 -26 64 8 81 34 18 53
40 47 57 -3 9 3 10 20 6 17 -4 27 -1 31 9 5 14 9 13 27 -4 l22 -20 3 31 c3 26
6 29 18 19 11 -9 14 -7 14 12 0 24 -43 54 -61 43 -5 -3 -9 0 -9 5 0 21 -23 11
-57 -24 -19 -19 -43 -35 -53 -35 -10 0 -24 -8 -29 -17 -10 -17 -10 -17 -11 0
0 10 11 22 26 27 17 7 24 15 20 26 -4 10 0 14 12 12 11 -2 16 3 14 14 -2 13 2
16 14 11 9 -3 19 -2 23 3 24 34 81 33 81 -1 0 -29 18 -14 24 20 8 42 23 53 41
29 11 -16 16 -17 27 -6 11 11 10 14 -2 22 -12 7 -10 11 10 18 23 9 23 9 -9 20
-28 10 -32 14 -21 27 17 20 3 19 -17 -1 -13 -13 -14 -17 -3 -24 16 -10 2 -33
-16 -26 -8 3 -14 0 -14 -7 0 -7 -8 -13 -19 -13 -12 0 -17 5 -13 14 4 11 -1 13
-19 7 -17 -4 -20 -3 -10 3 8 6 29 9 48 7 39 -3 44 11 8 25 -14 5 -25 12 -25
16 0 3 6 4 13 1 8 -3 29 8 48 24 31 27 35 28 47 12 6 -9 12 -20 12 -25 0 -4
14 -8 30 -8 17 0 30 5 30 10 0 6 -13 10 -30 10 l-30 0 22 22 c13 13 28 22 35
20 7 -2 10 3 7 11 -12 31 76 39 109 9 22 -20 36 -7 15 14 -15 15 -15 18 0 35
9 10 23 19 32 19 12 1 11 4 -4 15 -19 15 -19 15 2 15 13 0 22 6 22 15 0 8 4
15 8 15 14 0 32 -24 32 -42 0 -15 -4 -17 -19 -9 -16 9 -18 8 -14 -9 3 -11 9
-18 13 -15 5 3 11 1 15 -5 11 -18 35 -11 35 11 0 15 5 19 15 15 9 -3 18 1 22
10 7 20 -18 38 -29 21 -6 -9 -8 -8 -8 3 0 8 23 26 53 40 37 18 53 32 55 48 2
12 7 20 12 17 13 -8 0 -34 -32 -65 -35 -33 -36 -42 -3 -30 31 12 40 -2 14 -21
-12 -8 -27 -18 -35 -24 -11 -8 -5 -10 21 -12 19 -1 44 -8 56 -17 21 -14 21
-16 4 -22 -11 -5 -20 -3 -23 4 -5 15 -42 16 -42 1 0 -5 4 -8 9 -4 5 3 13 -4
16 -16 4 -13 12 -18 22 -15 8 3 21 -1 30 -9 8 -8 19 -12 25 -9 6 4 6 10 -1 17
-17 17 -14 47 4 41 8 -4 15 -1 15 5 0 6 9 11 21 11 26 0 15 -18 -19 -31 -25
-10 -26 -11 -9 -24 14 -10 19 -30 22 -81 3 -59 1 -70 -16 -82 -14 -9 -17 -20
-13 -38 4 -14 2 -24 -5 -24 -6 0 -11 5 -11 12 0 9 -3 9 -12 0 -9 -9 -8 -15 8
-26 10 -8 21 -10 22 -5 2 5 9 9 14 9 6 0 8 -3 5 -7 -4 -3 -2 -12 5 -20 6 -7 8
-17 4 -20 -4 -4 -11 -1 -16 7 -7 10 -8 3 -5 -22 4 -32 2 -36 -14 -33 -13 2
-18 -1 -15 -13 3 -10 -11 -32 -36 -56 -32 -31 -40 -35 -40 -20 0 16 -2 17 -10
4 -6 -9 -6 -16 0 -18 5 -2 2 -15 -7 -28 -9 -14 -22 -23 -30 -20 -8 3 -12 2 -8
-3 3 -5 -9 -21 -27 -35 -18 -14 -29 -28 -25 -32 4 -4 64 49 135 118 70 69 179
174 244 233 254 234 456 509 473 645 l6 45 -16 -28 -17 -29 -19 21 c-21 22
-54 28 -64 11 -3 -6 -15 -10 -27 -10 -15 0 -18 4 -14 17 4 10 4 14 0 10 -4 -4
-13 1 -20 11 -16 20 -19 66 -4 57 6 -4 6 3 0 21 -11 27 -9 63 6 98 5 14 4 17
-5 11 -10 -5 -11 -2 -6 14 3 12 9 56 11 99 3 42 6 86 6 97 1 11 7 23 12 27 8
5 7 14 -1 28 -15 23 -17 42 -3 20 8 -12 10 -11 10 8 0 12 -6 22 -12 22 -8 0
-4 7 7 15 14 11 18 25 17 51 -2 20 2 51 8 70 6 18 8 39 3 46 -14 23 -12 41 5
54 16 12 16 13 0 19 -10 4 -18 11 -18 17 0 5 4 7 9 3 5 -3 12 -1 15 4 4 5 2
12 -3 15 -6 4 -5 18 2 36 10 25 9 33 -3 40 -13 9 -13 11 -1 19 8 5 11 16 8 25
-4 9 -1 16 5 16 7 0 6 6 -3 16 -9 12 -10 17 -1 23 6 4 11 23 10 43 -1 21 4 44
11 52 9 10 9 16 1 21 -13 8 -5 72 12 93 7 8 7 12 -2 12 -9 0 -10 3 -1 14 6 7
9 21 5 30 -4 9 -1 16 6 16 7 0 10 6 7 14 -3 8 -1 17 6 20 9 5 9 7 -1 12 -10 5
-10 9 -1 20 6 8 8 25 5 39 -5 18 -2 25 9 25 18 0 20 16 3 23 -10 4 -10 7 0 15
8 5 13 15 12 23 -1 8 -2 25 -1 39 1 20 3 22 11 10 8 -12 10 -9 10 11 0 26 1
27 43 17 66 -16 188 -13 222 5 39 20 244 193 280 236 106 126 251 394 304 562
38 121 71 282 71 346 0 92 -49 210 -102 247 -12 9 -44 19 -70 22 -44 6 -48 9
-48 35 0 15 5 31 10 34 6 3 10 1 10 -4 0 -6 5 -11 10 -11 6 0 8 15 4 40 -4 25
-3 40 4 40 6 0 12 -6 15 -12 2 -7 2 8 0 33 -4 34 -1 50 12 62 13 13 15 27 10
60 -5 38 -4 40 9 24 19 -25 28 -7 21 45 -4 32 -3 38 4 22 11 -25 31 -41 31
-25 0 6 -4 11 -10 11 -6 0 -10 27 -9 63 l1 62 19 -55 c13 -39 17 -45 13 -20
-19 124 -17 137 19 131 5 -1 7 4 4 11 -2 7 -10 12 -16 11 -6 -2 -11 7 -11 20
1 21 1 21 15 3 19 -25 33 -12 17 14 -14 23 -16 74 -3 66 24 -15 50 403 28 448
-6 13 -6 16 3 11 14 -9 5 51 -17 112 -9 24 -16 76 -17 117 -1 61 3 78 19 97
11 12 15 19 9 16 -17 -10 -31 12 -38 58 -10 65 -11 69 -34 105 -26 41 -29 58
-6 36 20 -21 41 -21 24 -1 -10 12 -10 15 0 15 9 0 7 6 -5 20 -10 11 -22 17
-28 13 -6 -4 -8 0 -4 10 3 9 1 20 -5 23 -8 5 -5 10 8 15 16 6 16 8 2 8 -9 1
-17 9 -17 19 -3 57 -21 135 -33 143 -6 4 -12 31 -14 60 -5 66 -13 108 -25 134
-40 88 -44 140 -15 161 20 15 20 15 1 14 -35 -4 -45 0 -45 15 0 8 -4 15 -9 15
-11 0 -21 40 -23 97 -1 34 -4 41 -15 32 -10 -9 -13 -5 -13 22 0 19 -7 43 -15
53 -11 14 -12 23 -4 33 8 8 8 13 1 13 -6 0 -12 -5 -14 -11 -2 -5 -11 -7 -20
-4 -16 6 -25 25 -38 80 -7 29 -8 29 -15 7 -6 -18 -13 -22 -29 -17 -11 4 -31 9
-43 12 -13 3 -23 13 -23 22 0 14 2 14 10 1 8 -13 10 -13 10 2 0 10 -16 26 -40
38 -22 11 -40 18 -40 15 0 -3 -25 13 -55 35 -30 22 -56 40 -59 40 -11 0 -82
52 -101 74 -11 13 -31 27 -45 31 -24 6 -23 5 5 -15 17 -12 22 -19 12 -16 -11
3 -27 -2 -39 -14 -17 -16 -24 -17 -36 -7 -13 10 -13 12 4 15 25 5 43 22 23 22
-7 0 -25 23 -38 50 -16 34 -31 52 -47 56 -13 4 -33 17 -43 30 -15 19 -25 22
-59 18 -22 -2 -43 0 -47 6 -3 5 -15 10 -26 10 -10 0 -27 4 -37 9 -9 5 -35 14
-58 20 -23 6 -57 27 -79 48 -33 32 -38 34 -33 15 5 -19 4 -21 -8 -11 -8 6 -14
18 -14 26 0 8 -4 12 -8 9 -5 -3 -23 4 -41 15 -24 15 -31 24 -26 39 4 11 2 20
-4 20 -6 0 -14 0 -18 1 -5 0 -14 12 -22 27 -9 18 -16 22 -19 13 -2 -7 -1 -16
4 -20 14 -9 35 -51 27 -51 -12 0 -68 52 -81 75 -6 11 -12 15 -12 8 0 -19 -32
-4 -63 31 -21 23 -27 26 -22 11 5 -18 4 -18 -17 3 -13 12 -35 32 -51 43 -15
11 -24 25 -21 31 5 7 2 8 -5 4 -7 -5 -20 -1 -29 7 -14 13 -19 13 -29 2 -10
-11 -10 -17 3 -29 18 -19 2 -21 -28 -5 -11 6 -31 12 -44 14 -12 1 -30 9 -39
19 -17 17 -35 21 -35 8 0 -4 5 -13 12 -20 9 -9 9 -12 0 -12 -7 0 -12 5 -12 11
0 5 -4 7 -10 4 -5 -3 -10 -1 -10 6 0 7 -3 9 -7 6 -3 -4 -15 0 -25 10 -11 9
-18 11 -18 5 0 -7 -5 -12 -11 -12 -5 0 -7 5 -3 12 5 7 2 9 -9 5 -12 -4 -14 -2
-10 11 6 15 5 16 -12 2 -10 -8 -16 -10 -12 -4 9 16 -32 40 -66 39 -19 -1 -26
3 -23 12 3 7 0 14 -7 14 -7 1 -21 3 -32 4 -146 22 -184 29 -179 37 3 4 0 8 -5
8 -6 0 -11 -4 -11 -9 0 -5 -19 -7 -42 -4 -65 8 -103 18 -100 28 4 9 -17 25
-33 25 -5 0 -3 -5 5 -10 13 -8 13 -10 -2 -10 -9 0 -23 7 -32 15 -17 17 -20 18
-30 8z m-368 -1095 c29 1 32 -2 27 -19 -6 -19 -4 -18 32 5 42 28 85 28 129 0
15 -9 24 -10 32 -2 13 13 35 0 28 -18 -3 -8 1 -14 9 -14 8 0 15 4 15 9 0 12
38 2 67 -17 12 -7 27 -11 33 -7 6 4 17 2 24 -4 9 -8 21 -7 44 5 18 8 34 19 37
24 3 4 15 6 28 2 20 -5 21 -4 8 11 -20 25 4 21 28 -5 16 -17 23 -19 35 -9 11
9 15 9 18 -1 4 -10 8 -10 22 1 14 12 16 12 10 -2 -4 -13 -1 -15 16 -12 13 2
25 7 28 10 3 2 11 -3 18 -13 9 -11 16 -14 21 -6 13 18 64 24 70 8 4 -11 9 -12
19 -3 11 9 14 8 14 -6 0 -12 6 -16 20 -12 15 4 20 1 18 -11 -2 -11 4 -17 17
-17 14 0 21 -8 23 -28 l3 -28 40 32 c21 17 47 32 57 34 9 2 18 4 20 5 2 2 48
3 58 1 4 -1 1 -8 -6 -16 -10 -12 -9 -16 5 -22 11 -4 22 0 30 10 13 18 41 24
30 7 -4 -7 7 -8 33 -4 32 5 46 2 70 -16 17 -13 33 -33 36 -46 4 -14 12 -21 19
-18 8 3 20 -12 32 -38 10 -24 37 -60 59 -82 31 -30 40 -46 40 -72 0 -32 17
-51 37 -38 5 3 17 0 26 -5 16 -9 16 -10 -4 -11 -12 0 -25 -5 -28 -11 -8 -13
33 -59 52 -59 8 0 12 -4 9 -9 -8 -12 21 -34 34 -26 6 3 8 11 5 16 -4 5 6 8 22
8 17 -1 21 -3 11 -6 -17 -4 -17 -6 -1 -36 9 -18 16 -36 15 -40 -1 -4 6 -4 15
2 15 8 18 5 18 -22 0 -18 -4 -37 -8 -44 -4 -6 -3 -14 2 -17 5 -4 13 -1 16 4 5
8 13 6 25 -5 17 -15 17 -20 6 -39 -17 -26 -33 -79 -17 -56 8 12 12 10 20 -12
5 -14 14 -29 19 -32 5 -3 7 -19 4 -36 -3 -24 -8 -29 -23 -25 -13 5 -17 1 -16
-15 1 -11 7 -20 13 -20 16 0 26 -28 13 -36 -5 -3 -16 -3 -24 0 -8 3 -15 2 -15
-3 0 -5 12 -12 26 -15 18 -5 24 -12 20 -22 -3 -9 -6 -27 -6 -42 0 -20 -3 -23
-12 -14 -19 19 -24 14 -25 -24 -1 -32 0 -33 13 -17 12 17 13 17 14 1 0 -10 6
-18 13 -19 10 0 10 -2 0 -6 -16 -6 -17 -39 -3 -48 7 -4 7 -12 2 -18 -4 -7 -9
-37 -10 -67 -4 -71 -10 -93 -28 -86 -10 4 -14 -2 -14 -20 0 -20 4 -25 16 -20
12 5 14 1 8 -17 -14 -46 -23 -65 -32 -71 -6 -3 -8 -15 -5 -26 3 -11 -4 -31
-16 -46 -19 -24 -20 -29 -6 -44 8 -9 12 -20 8 -23 -10 -11 -33 -8 -33 4 0 14
-25 39 -39 39 -13 0 -6 -41 11 -77 13 -26 8 -36 -15 -27 -9 3 -13 12 -11 19 7
17 -16 31 -26 15 -5 -8 -9 -7 -13 4 -4 9 -17 16 -29 16 -22 -1 -22 -1 -4 -15
22 -17 5 -20 -24 -5 -11 6 -21 6 -24 1 -5 -8 29 -25 47 -22 7 1 11 -14 8 -36
-1 -7 2 -13 6 -13 5 0 14 -9 21 -21 13 -20 12 -21 -16 -14 -17 3 -32 2 -35 -2
-8 -12 -119 -15 -149 -4 -38 14 -27 49 15 53 l32 3 -28 13 c-21 9 -26 9 -21 0
5 -8 2 -9 -10 -5 -10 4 -28 7 -40 7 -13 0 -41 12 -62 27 -26 18 -59 30 -99 35
-120 15 -145 20 -140 28 3 5 -13 6 -35 4 -24 -3 -40 -1 -40 6 0 5 -7 10 -15
10 -8 0 -15 -4 -15 -10 0 -5 -7 -10 -16 -10 -9 0 -23 -8 -30 -17 -12 -17 -13
-17 -10 0 1 10 9 23 17 28 27 17 -20 10 -49 -7 -25 -15 -25 -15 -8 0 24 20 16
20 -29 2 -25 -11 -35 -11 -39 -3 -2 7 -5 5 -5 -4 -1 -9 -8 -23 -17 -30 -15
-12 -16 -11 -9 10 5 16 4 21 -4 17 -6 -4 -11 -15 -12 -24 -1 -10 -4 -7 -9 8
-7 25 -7 24 -18 -10 l-11 -35 3 48 c3 55 -4 60 -23 15 -8 -17 -22 -39 -32 -49
-9 -9 -19 -25 -21 -36 -3 -12 -7 -5 -12 20 -5 20 -13 37 -18 37 -6 0 -8 -15
-4 -37 4 -25 3 -33 -3 -24 -15 22 -31 2 -31 -39 0 -21 -4 -50 -10 -64 -5 -14
-6 -26 -1 -26 5 0 11 -9 14 -21 4 -13 10 -18 17 -14 9 6 9 2 0 -15 -6 -12 -25
-29 -41 -38 -16 -10 -29 -22 -29 -29 0 -17 -45 -63 -61 -63 -11 0 -11 -2 1
-10 13 -8 12 -13 -5 -42 -10 -18 -25 -39 -32 -46 -7 -7 -15 -28 -19 -47 -3
-19 -10 -35 -15 -35 -6 0 -5 -9 2 -21 17 -32 -3 -46 -35 -25 -34 22 -36 21
-36 -15 0 -22 4 -30 13 -26 10 4 13 -8 13 -43 0 -35 -3 -47 -13 -43 -8 3 -13
-3 -13 -17 0 -12 -12 -36 -26 -53 -15 -18 -22 -33 -15 -35 6 -2 11 -16 11 -31
0 -15 5 -32 12 -39 8 -8 8 -12 1 -12 -6 0 -14 8 -18 18 -13 33 -32 -14 -34
-85 -1 -48 -6 -70 -18 -78 -17 -12 -19 -37 -10 -121 4 -43 2 -51 -12 -50 -11
1 -17 -9 -19 -32 -2 -19 -8 -30 -14 -26 -6 4 -8 -1 -6 -12 2 -11 10 -18 16
-16 7 1 15 -12 19 -29 4 -20 14 -34 29 -40 15 -5 24 -17 24 -29 0 -12 9 -39
19 -60 11 -22 17 -49 14 -60 -4 -14 -1 -19 8 -15 11 4 15 -5 15 -35 1 -32 -1
-38 -12 -30 -9 9 -16 6 -25 -12 -7 -13 -12 -24 -11 -25 10 -16 -4 -24 -35 -21
-32 2 -38 0 -39 -17 0 -11 4 -25 8 -32 13 -17 -27 -27 -52 -13 -35 19 -53 -5
-45 -57 4 -28 2 -43 -4 -43 -6 0 -11 7 -11 15 0 8 -5 14 -12 12 -6 -1 -14 7
-16 18 -2 11 -15 33 -28 48 -13 16 -24 33 -24 38 0 5 -6 9 -14 9 -16 0 -62 68
-52 77 3 3 1 12 -6 20 -8 10 -8 17 0 25 7 7 12 23 12 37 0 15 7 39 15 55 18
35 18 36 0 36 -20 0 -19 26 1 34 9 3 26 6 39 6 30 0 42 30 15 37 -11 3 -20 10
-20 15 0 6 7 7 16 4 10 -4 15 -1 13 12 -1 9 6 34 16 54 18 37 18 38 0 58 -18
20 -18 22 -2 49 9 16 17 36 17 45 0 8 11 27 25 42 14 15 25 33 25 40 0 7 7 17
17 22 20 12 11 42 -15 48 -24 7 -42 47 -29 69 5 9 6 34 3 55 -9 56 0 72 36 65
27 -6 28 -5 22 19 -5 20 -2 26 10 26 9 0 16 -8 16 -20 0 -11 5 -20 10 -20 6 0
10 9 10 21 0 11 7 27 15 35 20 20 19 44 -1 44 -14 0 -14 -3 -4 -15 7 -9 8 -15
2 -15 -5 0 -12 7 -16 15 -3 8 -13 15 -21 15 -9 0 -13 5 -10 11 4 6 -2 13 -14
16 -25 6 -28 23 -3 23 13 1 12 4 -7 14 -22 12 -23 14 -6 23 17 10 17 12 -3 45
-28 45 -28 52 6 65 25 10 25 11 4 12 -12 1 -26 9 -29 19 -4 9 -9 19 -13 22
-15 12 -40 112 -34 136 6 22 4 25 -12 22 -23 -4 -56 26 -48 45 6 16 -13 69
-28 78 -6 4 -12 35 -14 69 -3 71 -14 95 -14 31 0 -23 -4 -40 -9 -36 -5 3 -11
0 -14 -7 -2 -7 -2 -3 0 10 2 12 -1 22 -7 22 -5 0 -10 5 -10 11 0 6 -13 24 -30
39 -16 15 -30 34 -30 42 -1 16 -30 56 -30 41 0 -7 5 -15 10 -18 6 -3 10 -19
10 -35 0 -16 5 -32 10 -35 6 -4 8 -11 4 -16 -3 -5 -15 2 -26 16 -10 14 -23 25
-28 25 -12 0 -60 48 -60 59 0 5 -12 8 -27 8 -34 -1 -98 11 -136 25 -19 7 -31
7 -41 -1 -16 -14 -55 -9 -65 8 -6 9 -27 11 -76 7 -36 -3 -71 -8 -76 -12 -5 -3
-9 0 -9 6 0 7 -9 9 -22 5 -23 -7 -23 -7 -3 9 19 14 19 15 1 16 -16 0 -16 2 5
21 l24 21 -25 -6 c-14 -4 -36 -9 -49 -13 -17 -4 -22 -2 -17 6 4 6 12 9 17 6 5
-4 9 0 9 8 0 10 -8 13 -25 9 -25 -4 -35 11 -15 23 13 8 9 47 -5 57 -5 4 -12 2
-16 -4 -5 -7 -13 -6 -27 3 -15 11 -17 19 -11 37 10 27 23 30 14 3 -8 -27 15
-38 32 -16 17 24 17 35 0 35 -8 0 -19 11 -25 25 -9 20 -9 25 2 25 13 0 26 20
26 41 0 5 -7 9 -15 9 -9 0 -15 -6 -13 -14 2 -8 -1 -15 -7 -15 -5 0 -9 10 -8
22 10 91 11 117 2 123 -5 3 -8 0 -7 -7 2 -7 -4 -14 -13 -16 -18 -4 -33 33 -17
43 5 3 1 12 -9 20 -17 13 -17 13 3 14 11 0 25 -5 32 -12 9 -9 12 -8 13 7 2 26
2 27 -7 49 -5 12 -4 17 3 13 6 -4 10 10 10 36 0 26 -2 31 -4 15 -4 -29 -17
-36 -28 -18 -4 6 -2 17 5 24 8 11 6 23 -9 50 -16 27 -17 36 -7 36 27 0 36 24
23 59 -10 28 -10 34 6 46 14 10 15 14 4 18 -21 8 -25 39 -9 67 13 24 13 23 8
-18 -4 -29 -3 -41 4 -37 5 3 10 15 10 26 0 10 7 19 15 19 18 0 19 12 3 28 -9
9 -10 15 -2 20 17 11 30 47 33 86 1 12 6 16 17 12 12 -5 14 -1 9 16 -6 18 -4
20 16 15 21 -5 22 -4 7 7 -20 15 -19 47 4 64 9 7 18 22 20 34 2 12 9 23 16 26
8 2 10 -2 5 -13 -5 -15 -3 -16 16 -5 17 9 20 15 11 25 -8 9 -6 14 7 19 15 6
15 8 3 16 -13 8 -12 10 0 14 36 11 76 19 88 17 12 -2 60 27 92 56 8 8 41 32
73 54 31 22 55 45 51 50 -3 5 -11 6 -17 2 -13 -7 13 25 50 64 26 27 33 29 33
8 0 -8 -4 -15 -10 -15 -5 0 -10 -5 -10 -11 0 -6 10 -9 23 -7 12 2 21 8 20 15
-3 12 111 27 142 18 11 -3 7 1 -10 9 -26 12 -15 13 105 8 74 -2 150 -5 168 -4z
m-484 -1882 c43 -21 71 -41 72 -53 2 -10 8 -19 14 -21 6 -2 23 -15 38 -29 21
-19 23 -26 12 -33 -11 -7 -9 -13 11 -29 13 -11 27 -20 31 -21 4 0 5 -6 2 -14
-3 -8 0 -24 6 -36 10 -18 14 -19 28 -8 13 11 15 11 9 -4 -4 -12 -2 -18 8 -18
8 0 15 -9 15 -19 0 -11 3 -28 7 -38 7 -17 6 -17 -11 0 -24 24 -27 21 -11 -10
15 -29 10 -48 -5 -23 -6 8 -10 11 -10 7 0 -4 -11 2 -24 15 -13 13 -43 36 -65
51 -23 16 -41 34 -41 40 0 7 4 6 10 -3 8 -12 10 -9 10 13 0 15 5 27 10 27 6 0
8 -12 6 -27 -4 -19 -2 -23 6 -15 6 6 17 8 24 5 8 -3 14 0 14 6 0 6 -5 10 -12
9 -6 -2 -14 5 -16 14 -2 13 1 16 12 12 9 -3 16 -1 16 6 0 6 -4 8 -10 5 -5 -3
-10 -1 -10 5 0 6 -4 8 -10 5 -5 -3 -10 -2 -10 2 0 5 -9 14 -21 21 -17 11 -20
11 -13 0 4 -7 -2 -4 -14 6 -19 17 -22 17 -22 3 0 -10 -5 -17 -11 -17 -7 0 -10
12 -7 30 3 17 1 30 -4 30 -4 0 -8 -4 -8 -8 0 -9 -42 -8 -58 2 -7 4 -12 3 -12
-3 0 -11 -93 19 -98 32 -2 4 -8 5 -13 1 -5 -3 -9 3 -9 12 0 16 -2 16 -20 -1
-18 -16 -20 -16 -15 -2 6 14 1 15 -31 10 -30 -5 -36 -4 -29 8 8 12 6 12 -8 0
-12 -10 -30 -12 -60 -7 -23 4 -50 7 -60 7 -9 0 -15 4 -12 10 4 5 -6 9 -22 9
-39 0 -9 20 32 20 l30 1 -25 15 c-25 15 -25 15 10 9 24 -4 31 -3 21 4 -11 7
-1 11 35 16 27 3 56 8 64 10 8 2 53 2 100 0 72 -4 96 -10 154 -39z m1406 -37
c3 0 22 0 42 1 60 3 160 -30 189 -62 14 -15 36 -28 47 -28 12 0 22 -5 22 -11
0 -6 6 -9 14 -6 14 5 36 -10 36 -25 0 -4 -7 -8 -15 -8 -8 0 -15 5 -15 10 0 6
-7 10 -16 10 -8 0 -12 -4 -9 -10 4 -6 -17 -7 -57 -2 -35 3 -105 6 -156 5 -58
-2 -91 1 -87 7 3 6 -1 10 -10 10 -11 0 -15 -5 -11 -15 3 -9 0 -15 -8 -15 -7 0
-19 7 -26 15 -10 12 -10 15 1 15 12 0 12 2 0 9 -11 7 -11 9 0 14 8 3 3 6 -11
7 -24 1 -24 1 -5 12 11 6 22 15 25 18 3 4 14 10 25 13 15 4 14 5 -7 6 -16 0
-28 -3 -28 -9 0 -5 -7 -10 -15 -10 -7 0 -18 -7 -23 -16 -5 -9 -12 -15 -15 -15
-38 5 -67 -1 -67 -14 0 -8 -9 -15 -21 -15 -11 0 -17 -4 -14 -10 4 -6 -7 -10
-24 -10 -17 0 -31 -4 -31 -10 0 -5 -7 -10 -15 -10 -8 0 -15 -7 -15 -16 0 -10
-7 -14 -22 -12 -15 2 -23 -2 -23 -12 0 -19 -37 -20 -43 -1 -3 10 0 12 12 8 11
-4 16 -2 15 6 -5 27 26 68 67 87 23 12 47 27 53 34 6 8 32 19 56 26 25 7 45
17 45 23 0 5 7 4 15 -3 12 -10 15 -10 15 3 0 13 10 15 53 12 28 -2 54 -5 57
-6z m-390 -267 c0 -21 2 -24 10 -12 8 13 10 13 10 -2 0 -9 -6 -18 -12 -21 -7
-2 -10 -7 -7 -11 4 -4 14 0 22 9 9 8 28 15 43 15 26 0 27 0 9 -20 -10 -11 -23
-20 -30 -20 -7 0 -19 -8 -28 -17 -13 -15 -14 -22 -2 -43 12 -22 11 -26 -13
-47 -27 -23 -46 -15 -35 14 3 7 0 13 -6 13 -6 0 -11 -7 -11 -15 0 -9 -6 -12
-15 -9 -8 4 -15 16 -15 28 0 29 24 72 38 69 7 -2 12 4 12 12 0 8 -4 15 -10 15
-5 0 -10 11 -10 25 0 16 6 25 15 25 8 0 15 7 15 16 0 8 5 12 10 9 6 -3 10 -18
10 -33z m-1746 -207 c-9 -21 27 -35 69 -25 33 7 37 6 37 -11 0 -12 7 -19 20
-19 24 0 25 -8 3 -32 -14 -16 -14 -18 0 -18 8 0 18 -6 20 -12 4 -8 6 -7 6 3 1
24 62 35 74 14 6 -12 17 -14 40 -9 18 3 35 11 38 16 8 12 113 28 117 18 2 -5
14 -5 28 0 29 11 31 0 8 -36 -21 -31 -11 -44 13 -17 32 36 183 77 197 54 3 -5
-2 -7 -13 -4 -10 3 -21 1 -24 -4 -10 -17 5 -52 24 -58 10 -4 19 -13 19 -21 0
-21 10 -17 36 14 13 15 24 21 24 15 0 -7 -9 -22 -19 -32 -11 -11 -16 -22 -13
-26 4 -3 -2 -3 -13 0 -16 5 -17 5 -4 -4 8 -5 26 -7 38 -4 17 4 19 8 9 14 -10
7 -8 9 6 9 12 0 16 -5 12 -16 -3 -9 -6 -21 -6 -27 0 -8 -3 -7 -9 2 -6 10 -13
11 -29 2 -27 -15 -45 -14 -37 2 4 6 1 5 -7 -4 -7 -9 -20 -14 -28 -12 -12 4
-13 3 -1 -5 7 -5 10 -15 6 -21 -5 -9 -11 -7 -20 6 -13 17 -14 16 -8 -4 3 -13
11 -23 19 -23 8 0 11 -6 8 -15 -4 -9 0 -15 8 -15 10 0 14 10 12 34 -3 29 0 35
22 39 23 4 25 2 21 -19 -2 -14 1 -25 10 -28 8 -3 11 -11 8 -16 -5 -8 -11 -7
-21 1 -11 9 -14 8 -14 -6 0 -10 3 -15 7 -12 3 4 12 -2 20 -13 8 -11 20 -20 26
-20 7 0 4 6 -5 14 -20 15 -14 28 9 19 8 -3 19 0 24 8 8 12 11 12 19 -1 9 -13
11 -13 19 0 5 8 7 18 4 24 -3 5 -1 6 5 2 5 -3 13 0 15 6 8 19 6 -23 -1 -50 -4
-13 -11 -23 -17 -23 -5 0 -17 -7 -26 -15 -9 -8 -19 -11 -23 -7 -4 5 -6 -13 -5
-39 2 -28 -2 -53 -9 -60 -16 -16 -15 -28 2 -28 8 0 17 -6 19 -12 4 -10 8 -9
17 2 12 15 11 8 -5 -49 -5 -16 -2 -18 16 -14 19 5 20 4 7 -18 -7 -13 -18 -28
-24 -34 -7 -5 -15 -26 -18 -45 -3 -19 -8 -42 -9 -50 -15 -72 -20 -90 -28 -90
-5 0 -9 -7 -9 -15 0 -9 -9 -34 -19 -55 -11 -22 -17 -49 -14 -60 3 -11 0 -26
-6 -33 -6 -8 -8 -17 -4 -20 3 -4 -2 -9 -11 -13 -9 -3 -16 -11 -16 -16 0 -6 6
-5 15 2 12 10 16 9 21 -6 3 -11 9 -26 14 -36 6 -11 4 -20 -5 -28 -9 -8 -13
-21 -9 -36 6 -25 -10 -54 -30 -54 -6 0 -4 5 4 10 10 7 11 10 2 10 -8 0 -10 8
-6 25 5 22 3 25 -20 25 -19 0 -29 -7 -36 -24 -5 -13 -18 -27 -29 -31 -17 -5
-19 -9 -8 -26 6 -10 20 -19 29 -19 10 0 18 -4 18 -10 0 -5 -8 -10 -18 -10 -10
0 -27 -7 -38 -15 -12 -8 -24 -11 -28 -8 -3 3 -6 -2 -6 -13 0 -13 7 -20 20 -20
13 0 20 7 20 18 0 10 6 18 14 18 9 0 12 -9 9 -27 -9 -54 -13 -60 -29 -39 -11
16 -14 17 -14 4 0 -9 6 -18 13 -21 9 -3 8 -8 -3 -22 -14 -17 -14 -17 7 -7 12
7 24 17 26 24 4 8 8 4 13 -10 5 -17 9 -20 20 -11 7 6 21 9 31 6 16 -3 16 -5
-4 -13 -19 -8 -20 -11 -8 -28 8 -10 19 -15 26 -11 7 5 10 3 7 -6 -6 -19 -46
-20 -44 -1 3 35 -52 12 -59 -25 -2 -10 -4 -19 -4 -21 -1 -1 -7 3 -15 10 -11
11 -11 15 3 26 10 8 5 8 -15 -2 -17 -8 -38 -26 -46 -38 -14 -20 -14 -27 -2
-43 10 -13 11 -22 3 -31 -6 -7 -9 -18 -8 -26 2 -7 0 -26 -5 -42 -8 -33 19 -96
41 -96 7 0 13 -4 13 -8 0 -5 13 -22 30 -38 21 -20 30 -39 30 -62 0 -29 3 -33
21 -27 18 6 20 4 14 -14 -4 -15 0 -27 13 -39 11 -9 24 -33 27 -52 7 -31 6 -33
-9 -21 -9 7 -16 9 -16 5 0 -5 9 -15 20 -22 11 -7 20 -21 20 -32 0 -11 5 -20
10 -20 17 0 11 -19 -10 -30 -17 -9 -22 -7 -29 12 -8 21 -9 19 -15 -17 -4 -22
-11 -47 -16 -56 -7 -14 -5 -16 12 -11 15 3 19 1 16 -9 -3 -8 -11 -14 -18 -14
-7 0 -15 -6 -18 -14 -3 -10 0 -12 13 -7 12 4 16 2 12 -8 -4 -10 2 -16 21 -18
22 -2 26 -8 24 -26 -2 -20 1 -22 20 -17 16 6 20 4 15 -9 -5 -13 -1 -14 25 -9
27 5 30 4 24 -12 -8 -22 19 -50 56 -57 22 -4 28 -1 33 21 l7 26 9 -23 c9 -25
37 -25 30 -1 -5 20 -5 52 0 68 2 7 -2 16 -9 18 -8 3 -10 -1 -5 -13 3 -9 2 -15
-3 -12 -5 2 -24 11 -41 18 -22 10 -33 21 -33 35 0 31 11 65 21 65 12 0 11 -37
-1 -61 -15 -27 11 -26 28 1 15 24 34 18 26 -8 -5 -15 -4 -15 9 1 20 25 75 39
99 26 10 -6 32 -7 49 -4 18 4 29 3 29 -4 0 -21 52 -12 57 9 3 11 14 20 24 20
11 0 20 6 20 13 5 36 3 53 -6 60 -6 4 -5 10 3 16 11 6 10 10 -4 15 -14 5 -15
9 -5 19 9 9 14 9 21 -3 8 -12 10 -10 10 8 0 21 13 27 48 23 6 -1 12 4 13 11 0
7 4 5 7 -5 7 -17 8 -17 27 1 18 17 21 17 33 3 11 -15 12 -15 6 0 -3 10 1 19
11 23 10 3 14 2 10 -5 -4 -6 2 -13 14 -16 12 -3 21 -12 21 -19 0 -18 59 -15
78 3 18 18 32 16 32 -3 0 -10 6 -14 15 -10 8 3 15 0 15 -6 0 -6 7 -16 15 -22
14 -10 14 -15 0 -49 -8 -20 -11 -37 -6 -37 5 0 12 6 14 13 4 9 8 8 16 -3 8
-11 11 -12 11 -2 0 7 4 11 9 8 5 -4 11 -2 13 4 1 5 28 14 58 20 66 12 116 34
124 55 3 8 12 12 21 9 8 -3 15 -1 15 5 0 6 7 11 15 11 15 0 19 11 15 39 -2 13
0 13 16 0 10 -7 15 -9 11 -2 -6 10 8 27 24 28 10 0 65 70 77 98 6 15 16 27 21
27 6 0 8 6 5 14 -3 9 5 21 20 31 14 10 26 23 26 29 0 12 8 20 78 79 19 15 30
27 26 27 -4 0 2 9 14 20 12 11 26 20 32 20 5 0 10 6 10 14 0 7 7 19 15 26 20
17 19 30 -2 30 -10 0 -27 7 -37 15 -11 8 -35 15 -54 15 -18 0 -31 4 -28 9 9
14 -20 21 -33 8 -8 -8 -11 -7 -11 4 0 11 -13 15 -56 15 -36 0 -58 4 -64 13 -5
9 -18 12 -38 8 -16 -3 -33 -3 -37 1 -7 7 -13 9 -45 11 -13 1 -20 8 -20 21 0
23 -22 27 -39 6 -11 -13 -27 -13 -121 -3 -19 2 -38 -1 -42 -7 -5 -8 -8 -7 -8
2 0 14 -46 16 -55 2 -3 -5 -19 -10 -36 -10 -20 0 -29 5 -30 18 -1 16 -2 16 -6
-1 -2 -9 -8 -15 -13 -12 -5 3 -7 13 -4 23 5 15 4 16 -8 1 -9 -11 -27 -15 -55
-14 -24 1 -43 -2 -43 -7 0 -5 5 -6 10 -3 6 3 10 1 10 -5 0 -7 -7 -9 -15 -6 -8
3 -22 9 -30 12 -8 3 -15 1 -15 -5 0 -11 -2 -11 -67 22 -23 11 -33 12 -37 4 -2
-7 -5 -3 -5 8 -1 14 -4 16 -13 7 -9 -9 -14 -7 -24 6 -12 15 -13 13 -14 -15 0
-18 -4 -33 -10 -33 -5 0 -10 12 -10 26 0 22 -3 25 -24 20 -30 -7 -40 3 -18 20
25 18 3 38 -29 26 -13 -5 -37 -12 -53 -16 -23 -6 -27 -4 -23 8 4 9 2 18 -2 21
-5 3 -11 -2 -15 -10 -3 -10 -19 -15 -46 -15 -40 0 -40 1 -36 33 6 53 10 62 31
70 14 6 23 3 32 -9 15 -21 43 -11 43 16 0 23 15 27 27 5 17 -29 226 -43 313
-20 14 4 44 6 67 6 38 -1 43 2 49 24 5 20 9 23 19 15 10 -8 15 -8 20 0 4 7 18
9 34 6 25 -6 25 -6 7 9 -11 8 -16 15 -10 16 5 0 38 2 73 4 70 5 76 7 76 37 0
26 70 57 88 39 9 -9 7 -13 -10 -17 -16 -4 -23 -17 -29 -52 -4 -26 -9 -39 -11
-29 -5 20 -23 13 -23 -8 0 -11 12 -14 48 -13 60 2 67 6 47 28 -8 9 -13 24 -9
34 8 21 22 21 26 -1 3 -16 4 -16 20 0 9 9 21 17 25 17 5 0 24 13 42 29 34 30
34 51 1 51 -26 0 -34 17 -14 28 9 5 14 14 10 21 -11 17 -26 13 -26 -6 0 -12
-7 -7 -22 16 -21 32 -21 34 -4 82 10 26 15 52 12 58 -3 5 -1 22 4 37 8 21 8
29 -2 35 -42 26 -78 66 -94 105 -18 45 -54 63 -54 27 0 -11 -3 -14 -10 -7 -6
6 -7 29 -4 55 5 37 10 45 27 45 11 -1 22 5 25 13 3 9 -1 11 -16 7 -11 -4 -23
-3 -25 1 -3 5 6 10 21 11 30 2 39 9 44 37 2 11 9 19 15 18 13 -3 7 59 -8 89
-5 9 -7 23 -4 31 3 7 -3 35 -14 60 l-20 47 28 0 c41 0 101 -27 101 -46 0 -9 6
-14 13 -11 6 2 11 15 9 28 -2 19 0 21 8 9 8 -13 10 -12 11 5 1 15 2 16 6 4 5
-22 53 -13 53 10 0 12 -2 13 -9 3 -7 -11 -9 -11 -14 2 -4 9 -14 16 -24 16 -13
0 -14 3 -5 12 10 10 17 10 34 -1 14 -9 23 -10 26 -3 1 5 12 8 22 5 11 -3 18
-9 15 -13 -3 -5 4 -6 15 -3 11 3 23 10 27 16 4 6 0 8 -9 4 -12 -4 -14 -1 -10
16 3 12 7 16 10 9 2 -6 8 -12 14 -12 6 0 8 7 4 15 -6 17 9 21 19 5 4 -7 12 -7
25 0 10 5 29 10 42 9 22 0 22 -1 3 -9 -11 -5 -14 -9 -7 -9 7 -1 10 -6 6 -13
-5 -8 -2 -9 10 -5 10 4 23 7 29 7 7 0 6 5 -3 11 -12 8 -11 9 5 6 11 -2 19 -9
17 -15 -2 -11 11 -16 32 -13 4 1 14 -3 21 -9 7 -6 16 -7 19 -2 5 8 -32 30
-114 67 l-35 15 50 -7 c28 -3 57 -7 65 -8 9 0 20 -4 25 -7 6 -3 33 -8 60 -11
28 -3 42 -3 33 -1 -10 3 -18 9 -18 14 0 16 21 22 34 10 8 -6 31 -11 52 -10 22
0 50 0 63 0 14 0 28 4 31 10 3 5 11 5 20 0 23 -15 60 -12 54 3 -3 9 6 13 33
13 20 0 38 5 41 12 5 16 29 15 35 0 4 -9 12 -5 26 12 17 21 22 23 30 10 6 -8
13 -11 17 -7 11 11 34 -13 34 -35 0 -11 11 -33 24 -49 20 -23 23 -36 19 -69
-6 -41 5 -76 35 -112 8 -10 19 -15 23 -12 5 3 9 1 9 -5 0 -5 -4 -11 -9 -13
-15 -5 -18 -63 -3 -60 14 2 16 -14 2 -23 -5 -3 -7 -12 -3 -20 3 -8 0 -15 -7
-15 -6 0 -10 -10 -8 -22 2 -13 9 -22 16 -20 7 1 12 -8 12 -21 0 -13 5 -28 10
-33 7 -7 6 -11 -5 -11 -8 0 -15 4 -15 9 0 4 -9 8 -20 8 -11 0 -20 7 -20 16 0
8 -5 12 -10 9 -8 -5 -8 -11 -1 -19 6 -7 8 -16 5 -19 -3 -3 1 -16 10 -29 21
-30 20 -38 -6 -38 -17 0 -23 -6 -24 -25 -1 -14 2 -25 7 -25 5 0 9 7 9 15 0 13
3 13 20 3 14 -9 18 -19 13 -37 -4 -14 -2 -22 4 -18 6 4 7 -8 4 -31 -5 -31 -11
-38 -36 -43 l-30 -7 30 -2 c18 -1 23 -4 13 -7 -21 -5 -23 -24 -6 -41 9 -9 9
-12 1 -12 -7 0 -15 5 -18 10 -10 17 -25 11 -25 -10 0 -11 6 -20 14 -20 9 0 12
-8 8 -25 -3 -16 -11 -25 -23 -25 -22 0 -24 -11 -6 -29 10 -10 9 -11 -6 -5 -13
5 -16 2 -11 -10 3 -9 1 -23 -6 -31 -7 -8 -9 -22 -6 -31 5 -12 2 -15 -9 -10
-11 4 -19 -3 -25 -20 -6 -14 -19 -28 -30 -31 -11 -3 -22 -17 -25 -34 -4 -16
-13 -29 -21 -29 -20 0 -19 -59 2 -67 9 -3 25 -1 35 5 19 12 22 8 31 -52 4 -28
25 -31 33 -4 5 13 3 24 -4 26 -6 2 -11 10 -11 18 0 7 6 11 14 8 9 -3 13 1 13
13 -2 17 2 19 47 22 16 1 17 4 8 13 -22 22 -14 39 16 32 36 -9 37 -11 22 -30
-11 -12 -11 -17 -2 -23 7 -4 13 -26 15 -49 1 -23 5 -42 10 -42 4 0 7 -13 7
-28 0 -15 5 -33 11 -39 8 -8 8 -17 0 -32 -9 -16 -9 -26 0 -42 8 -17 8 -20 -1
-14 -9 5 -10 1 -5 -16 3 -13 9 -32 11 -41 3 -10 1 -18 -5 -18 -5 0 -12 12 -14
28 -3 19 -4 15 -6 -15 0 -23 4 -45 9 -48 7 -4 7 -11 2 -18 -15 -19 -23 -105
-10 -109 7 -3 5 -10 -6 -20 -9 -9 -16 -24 -16 -32 0 -9 -5 -16 -11 -16 -8 0
-10 -12 -6 -33 6 -39 -5 -63 -23 -52 -9 5 -11 4 -6 -4 4 -6 2 -18 -4 -26 -7
-8 -10 -26 -7 -41 3 -18 1 -24 -9 -20 -8 3 -14 -1 -14 -10 0 -8 4 -12 10 -9 6
3 7 -1 3 -10 -5 -13 -7 -14 -14 -3 -5 7 -9 9 -10 3 -1 -5 -2 -14 -4 -20 -1 -5
-3 -16 -3 -24 -1 -8 -5 -11 -9 -8 -3 4 -14 -3 -22 -15 -9 -13 -23 -23 -31 -23
-8 0 -19 -17 -26 -40 -6 -22 -14 -38 -18 -35 -4 3 -14 -6 -21 -20 -7 -14 -17
-25 -22 -26 -34 -3 -44 -18 -39 -58 3 -22 3 -33 0 -23 -3 9 -12 17 -20 17 -8
0 -14 -8 -14 -17 -1 -17 -1 -17 -11 0 -14 23 -33 23 -20 -1 7 -13 5 -31 -4
-58 -8 -21 -14 -34 -15 -28 0 6 -7 11 -15 11 -9 0 -14 -6 -11 -13 3 -8 1 -16
-5 -19 -5 -4 -12 1 -15 9 -3 9 -10 16 -16 16 -5 0 -6 -4 -3 -10 3 -5 2 -10 -3
-10 -6 0 -13 12 -16 26 -10 39 -18 22 -18 -35 1 -28 -3 -51 -7 -51 -4 0 -8 6
-9 13 0 6 -4 22 -7 35 -4 12 -3 22 2 22 5 0 8 12 7 28 -2 37 -2 36 -22 49 -17
10 -19 8 -19 -18 0 -22 3 -26 13 -18 8 7 14 7 19 -1 3 -5 1 -10 -4 -10 -6 0
-10 -3 -10 -7 4 -22 -2 -43 -10 -38 -5 3 -12 1 -15 -4 -4 -5 -2 -12 4 -16 5
-3 10 -16 11 -28 1 -20 2 -20 9 3 7 22 8 23 9 4 1 -12 4 -37 7 -55 4 -25 3
-30 -5 -19 -5 8 -13 11 -17 8 -4 -4 -15 -3 -25 3 -13 6 -19 6 -19 -1 0 -5 5
-10 10 -10 6 0 10 -4 10 -10 0 -16 -17 -12 -24 5 -3 9 0 25 7 36 10 16 9 21
-2 28 -7 5 -10 14 -7 20 11 17 -4 36 -15 20 -8 -12 -11 -11 -19 1 -7 10 -10
11 -11 3 -3 -28 -4 -32 -11 -39 -11 -10 -10 -46 1 -40 10 6 25 -24 16 -32 -3
-3 -5 0 -5 6 0 6 -9 9 -21 7 -15 -3 -19 0 -15 10 3 8 0 15 -5 15 -6 0 -9 9 -6
20 3 11 1 23 -4 26 -9 5 -13 -16 -10 -43 1 -7 -3 -21 -9 -32 -7 -14 -6 -21 3
-24 7 -3 4 -6 -6 -6 -14 -1 -17 4 -12 19 4 11 2 20 -4 20 -6 0 -11 7 -11 16 0
14 -3 14 -15 4 -12 -10 -13 -16 -4 -26 6 -8 8 -14 3 -14 -4 0 -3 -5 4 -12 7
-7 12 -21 12 -32 0 -17 -2 -18 -10 -6 -6 10 -10 11 -10 3 0 -7 -5 -13 -11 -13
-6 0 -8 7 -5 16 5 12 2 15 -10 10 -8 -3 -22 -6 -30 -6 -8 0 -14 -5 -14 -11 0
-5 4 -8 9 -4 13 7 24 -12 27 -48 1 -20 -1 -25 -7 -16 -5 8 -9 22 -9 32 0 9 -6
17 -14 17 -21 0 -29 -17 -11 -24 18 -6 20 -33 3 -38 -8 -3 -8 -9 0 -24 7 -12
11 -14 12 -5 0 8 2 12 5 9 3 -3 3 -13 -1 -22 -5 -14 -12 -9 -31 25 -13 23 -21
49 -18 58 3 8 3 12 -1 8 -4 -4 -13 5 -20 20 -11 25 -12 26 -13 6 -1 -12 4 -25
9 -28 8 -5 7 -11 -1 -21 -8 -10 -8 -14 0 -14 6 0 11 -9 11 -20 0 -11 -4 -20
-10 -20 -5 0 -7 7 -4 15 4 8 3 15 0 15 -4 0 -12 -13 -17 -30 -10 -28 -39 -43
-39 -20 0 6 -6 5 -14 -2 -10 -9 -11 -15 -2 -20 6 -5 2 -8 -11 -8 -25 0 -28 -7
-14 -29 11 -17 -9 -41 -33 -41 -8 0 -20 -8 -25 -17 -6 -10 -11 -12 -11 -5 0
21 -20 13 -20 -8 0 -11 -2 -20 -4 -20 -2 0 -12 -3 -22 -7 -10 -4 -15 -2 -11 3
3 5 -2 10 -11 10 -9 1 -26 4 -37 8 -15 5 -14 4 3 -5 12 -7 22 -16 22 -21 0 -4
7 -8 15 -8 8 0 15 -7 15 -15 0 -8 -9 -15 -20 -15 -11 0 -20 7 -20 15 0 8 -3
15 -7 16 -5 0 -16 2 -25 4 -20 4 -32 -10 -23 -25 5 -8 11 -7 21 1 11 9 14 8
14 -5 0 -9 -5 -16 -11 -16 -5 0 -7 -5 -4 -10 3 -6 0 -17 -9 -25 -19 -19 -26
-19 -26 0 0 8 5 15 10 15 6 0 10 4 10 10 0 5 -7 7 -16 3 -13 -5 -15 -15 -9
-49 6 -45 -8 -69 -20 -31 -4 12 -7 25 -6 30 2 11 -9 8 -25 -8 -14 -13 -12 -18
6 -17 3 0 5 -14 6 -31 l1 -32 -13 30 c-7 17 -13 23 -14 15 0 -12 -3 -11 -17 2
-13 14 -14 20 -4 32 8 9 8 16 2 20 -5 4 -14 -2 -20 -11 -8 -15 -13 -16 -30 -5
-28 16 -33 15 -27 -6 5 -15 1 -18 -24 -16 -16 1 -35 -4 -41 -12 -8 -10 -15
-11 -24 -4 -22 18 -55 20 -55 4 0 -8 -5 -14 -11 -14 -6 0 -9 7 -5 15 7 18 -10
20 -18 3 -3 -9 -8 -8 -16 5 -8 13 -15 15 -24 8 -7 -6 -26 -7 -48 -2 -21 5 -39
7 -42 4 -2 -2 -12 9 -22 25 -9 17 -29 35 -43 41 -23 10 -24 10 -8 -2 23 -19
22 -33 -3 -40 -18 -4 -20 -2 -14 16 6 19 5 20 -9 9 -12 -10 -21 -11 -36 -2
-12 6 -21 7 -21 1 0 -5 7 -12 16 -15 8 -3 12 -11 8 -17 -5 -9 -11 -7 -19 4 -7
9 -15 14 -18 11 -3 -3 -3 3 0 15 5 20 -7 26 -43 22 -7 -1 -17 13 -23 31 l-11
32 -20 -22 c-24 -26 -32 -28 -24 -7 4 8 1 15 -6 15 -6 0 -9 4 -5 9 9 15 -26
79 -47 84 -14 4 -18 1 -13 -12 5 -15 1 -18 -22 -14 -21 3 -24 2 -13 -6 8 -5
12 -13 9 -16 -4 -3 -12 1 -18 9 -10 11 -7 19 11 37 16 15 18 20 6 16 -13 -5
-18 3 -23 44 -4 30 -12 49 -20 49 -7 0 -22 18 -33 41 -12 23 -22 35 -25 27 -3
-7 -6 3 -8 22 l-2 35 -7 -40 c-7 -39 -7 -39 -9 -7 0 21 -5 31 -12 27 -6 -4 -8
-13 -5 -21 3 -8 1 -14 -4 -14 -16 0 -11 37 5 44 17 6 21 36 5 36 -5 0 -10 -4
-10 -8 0 -4 -16 -15 -35 -24 -19 -8 -32 -11 -28 -6 9 16 -18 27 -52 22 -27 -4
-26 -3 10 12 50 22 52 23 36 33 -9 6 -10 14 -3 27 8 16 6 19 -14 20 -13 1 -24
-2 -24 -7 0 -5 -9 -9 -19 -9 -11 0 -23 -5 -27 -11 -5 -9 1 -10 22 -5 l29 7
-30 -19 c-23 -15 -31 -16 -33 -5 -2 7 -9 13 -15 13 -6 0 -1 7 11 16 12 8 22
22 22 30 0 8 5 14 11 14 6 0 9 -7 5 -15 -3 -8 -1 -15 4 -15 17 0 24 51 9 61
-23 15 -37 10 -43 -14 -5 -20 -10 -22 -48 -18 -41 4 -41 4 -15 12 16 4 35 5
43 2 8 -3 14 1 14 10 0 12 -8 13 -47 6 -25 -5 -49 -7 -51 -4 -3 3 -1 5 5 5 18
0 22 38 6 57 -12 14 -14 15 -10 2 4 -12 0 -15 -19 -11 -13 2 -21 8 -18 13 3 5
0 9 -5 9 -6 0 -11 5 -11 11 0 6 7 9 15 6 8 -4 17 -2 20 3 4 6 -6 10 -21 10
-22 0 -24 3 -15 14 9 11 9 15 -1 20 -9 4 -10 8 -1 12 6 3 23 16 38 30 l26 24
-25 0 c-16 0 -26 -6 -26 -15 0 -8 -9 -15 -20 -15 -11 0 -20 5 -20 10 0 6 -7
10 -15 10 -9 0 -12 6 -9 15 4 8 1 15 -5 15 -6 0 -11 6 -11 14 0 27 -22 29 -41
5 l-19 -24 -1 25 c-1 14 -1 29 0 33 1 5 -8 6 -19 2 -14 -4 -20 -2 -20 8 0 19
-27 30 -34 14 -3 -7 -3 -2 0 11 4 16 0 28 -13 37 -15 12 -16 14 -2 15 19 0 45
27 35 37 -3 3 -16 7 -29 8 -23 2 -23 11 2 35 13 13 14 13 8 -2 -4 -13 -1 -18
11 -18 9 0 22 4 28 8 14 9 27 45 14 37 -6 -3 -13 1 -16 10 -6 14 -8 14 -19 -1
-11 -16 -12 -15 -10 2 0 11 4 25 9 32 5 8 -3 16 -21 24 -27 11 -27 12 -5 15
24 5 26 11 12 33 -7 11 -10 11 -10 2 0 -10 -3 -10 -14 0 -8 7 -10 17 -6 23 5
6 2 19 -6 29 -8 11 -14 34 -14 50 0 33 -12 58 -25 57 -8 -1 -13 18 -18 68 -1
18 6 28 30 40 35 17 41 32 19 50 -12 10 -13 8 -9 -8 6 -24 3 -25 -30 -10 -24
11 -25 11 -6 30 11 11 24 17 29 14 5 -3 11 -1 15 5 3 5 -1 10 -9 10 -19 0 -21
16 -5 26 8 5 6 10 -5 16 -11 6 -15 16 -11 29 4 11 2 19 -5 19 -6 0 -2 10 10
22 11 12 20 29 20 37 0 9 10 22 22 30 18 11 20 15 7 25 -17 14 -21 48 -6 58 8
5 7 11 -2 22 -9 10 -11 28 -7 51 6 28 4 35 -9 35 -8 0 -15 -4 -15 -10 0 -5 -6
-10 -12 -10 -7 1 -3 9 10 19 25 22 29 41 8 41 -18 0 -30 30 -16 44 5 5 10 14
10 20 0 5 -6 3 -12 -6 -15 -18 -53 -33 -43 -17 4 6 0 18 -8 27 -9 9 -17 21
-19 27 -2 6 -6 9 -9 8 -3 -1 -4 11 -1 26 2 17 -2 32 -12 40 -25 21 -18 35 8
17 17 -10 27 -12 31 -5 7 10 -21 38 -37 39 -5 0 -8 13 -8 29 0 17 -4 33 -10
36 -5 3 -10 10 -10 16 0 5 5 9 10 9 6 0 10 -7 10 -15 0 -8 5 -15 10 -15 6 0
10 -9 10 -20 0 -11 5 -20 10 -20 12 0 13 27 1 34 -10 7 -21 55 -12 54 28 -3
35 4 17 17 -11 8 -27 13 -35 10 -12 -4 -16 3 -16 28 0 26 6 35 32 47 18 8 33
22 33 31 0 8 8 24 18 35 10 11 16 26 14 33 -3 8 3 18 12 23 9 5 16 14 16 19 0
6 -4 8 -8 5 -16 -10 -43 35 -40 67 3 31 1 32 -29 29 -27 -3 -32 0 -27 13 5 12
10 13 20 4 10 -9 15 -8 19 2 2 8 9 26 14 40 9 24 8 26 -12 22 -21 -4 -21 -4
-2 8 11 6 28 20 37 30 15 15 15 18 2 23 -9 3 -14 13 -11 20 3 8 1 16 -5 18 -8
3 -7 10 1 26 9 18 9 21 -3 16 -8 -3 -17 -1 -21 5 -3 7 2 11 14 11 12 0 21 3
21 6 0 9 -24 30 -44 37 -14 6 -16 10 -7 21 11 13 5 26 -10 26 -5 0 -6 -7 -3
-15 7 -18 0 -19 -28 -4 -20 11 -20 11 3 35 12 13 19 24 15 24 -5 0 -3 7 4 15
14 17 32 11 24 -10z m3892 -502 c9 -21 10 -31 20 -138 3 -44 13 -87 20 -96 12
-14 11 -28 -11 -103 -14 -47 -25 -93 -25 -102 0 -9 -6 -30 -14 -47 -8 -18 -20
-47 -27 -65 -9 -20 -23 -35 -37 -39 -13 -3 -28 -16 -32 -29 -8 -21 -26 -29
-52 -25 -5 0 -8 -5 -8 -13 0 -20 -40 -16 -41 4 0 10 -2 11 -6 3 -2 -7 -11 -13
-18 -13 -15 0 -55 -51 -55 -70 0 -7 7 -18 14 -24 15 -11 20 -38 18 -88 -2 -31
-18 -38 -25 -10 -3 12 -5 10 -6 -7 -1 -16 -6 -21 -15 -18 -8 3 -17 -1 -20 -9
-3 -8 -15 -14 -26 -14 -11 0 -20 -7 -20 -15 0 -8 -7 -15 -15 -15 -8 0 -15 -6
-15 -14 0 -7 -20 -19 -46 -26 -52 -15 -62 -15 -86 -5 -13 5 -18 2 -18 -9 0 -9
-8 -16 -21 -16 -11 0 -18 4 -15 9 3 5 -8 14 -24 20 -17 5 -30 15 -30 21 0 6 5
8 12 4 8 -5 9 3 5 31 -6 38 10 86 34 101 8 4 9 3 5 -4 -5 -8 -2 -10 8 -6 9 3
16 15 16 25 0 10 4 19 9 19 5 0 22 20 38 45 19 30 35 44 50 45 12 0 26 6 30
13 4 6 28 30 53 52 46 41 50 47 50 65 0 6 10 11 23 11 12 1 0 6 -26 13 -44 10
-46 12 -31 28 12 12 20 46 26 120 10 109 29 163 61 172 21 5 83 -21 73 -31
-10 -10 15 -33 35 -33 13 0 19 7 19 24 0 13 7 36 14 52 18 33 15 40 -19 48
-33 8 -64 36 -58 51 2 7 32 30 66 51 34 21 71 46 81 56 25 23 52 23 62 1z
m-4626 -188 c0 -8 4 -15 9 -15 15 0 31 -52 37 -118 5 -58 3 -66 -19 -86 -30
-28 -44 -16 -64 61 -12 45 -12 58 -1 71 10 12 10 14 1 8 -16 -9 -16 -1 -3 25
7 13 7 25 0 38 -7 14 -6 21 3 24 23 10 37 7 37 -8z m4274 -195 c-7 -83 -12
-97 -59 -155 -18 -22 -49 -66 -69 -97 -20 -32 -45 -62 -56 -68 -18 -10 -20 -8
-20 17 0 31 21 95 51 157 11 22 29 77 40 121 22 84 32 109 57 138 15 17 17 16
39 -10 22 -26 23 -34 17 -103z m-1934 -687 c0 -7 5 -19 10 -26 6 -7 17 -21 25
-32 14 -19 14 -18 15 12 0 36 14 50 35 33 7 -6 16 -7 19 -2 8 13 53 3 67 -14
6 -7 12 -30 13 -51 6 -96 2 -91 42 -45 19 23 40 42 45 42 5 0 9 -16 9 -35 0
-19 2 -35 4 -35 2 0 21 16 40 35 20 19 39 35 41 35 3 0 5 -16 5 -35 0 -33 -4
-37 -67 -68 -76 -38 -183 -77 -212 -77 -10 0 -24 6 -30 14 -10 12 -16 10 -36
-10 -28 -28 -79 -32 -113 -8 -13 9 -24 14 -25 13 -23 -44 -23 -44 -112 -47
-48 -2 -92 2 -99 7 -7 6 -17 6 -26 1 -8 -6 -48 -10 -87 -10 -60 0 -77 4 -93
20 -11 11 -20 25 -20 32 0 9 -3 9 -12 0 -7 -7 -36 -12 -65 -12 -41 0 -57 5
-73 22 l-20 22 -16 -22 c-10 -14 -26 -22 -44 -22 -36 0 -43 19 -43 128 -1 62
3 86 15 98 25 25 56 9 69 -37 8 -24 15 -35 20 -28 5 8 8 6 11 -7 3 -11 7 -2
12 24 8 43 15 47 64 43 12 -1 22 3 22 9 0 5 9 10 20 10 14 0 20 -7 20 -22 0
-25 20 -63 20 -40 0 7 11 24 25 37 18 19 35 25 70 25 25 0 45 5 45 10 0 6 7
10 15 10 8 0 15 -4 15 -10 0 -5 8 -10 18 -10 14 0 15 2 2 10 -11 7 -5 10 25
11 52 2 163 1 195 -1 14 -1 43 4 64 13 43 16 76 12 76 -10z m-331 -1959 c-7
-9 -14 -25 -14 -37 -1 -11 -7 -23 -13 -25 -7 -2 -12 -11 -11 -20 0 -14 3 -12
16 6 10 14 26 22 44 22 16 0 29 4 29 10 0 5 -7 7 -15 4 -8 -4 -15 -1 -15 4 0
13 7 17 42 26 25 6 27 4 25 -21 -2 -23 3 -28 28 -33 17 -3 50 -3 75 1 52 8 58
5 40 -16 -10 -12 -10 -15 1 -16 8 0 -1 -5 -18 -10 -18 -5 -33 -15 -33 -21 0
-10 36 -7 88 8 13 4 22 2 22 -5 0 -6 -7 -11 -15 -11 -8 0 -15 -4 -15 -9 0 -4
12 -7 28 -5 l27 4 -27 -11 c-16 -6 -28 -15 -28 -20 0 -11 -4 -12 52 6 26 7 50
10 53 6 3 -5 -12 -12 -33 -17 l-37 -8 45 -6 45 -7 -55 -1 c-32 -1 -67 4 -84
13 -38 20 -44 19 -17 -4 l21 -18 -32 -32 c-34 -34 -54 -40 -44 -15 4 11 1 14
-12 12 -9 -2 -16 -10 -14 -16 3 -14 -3 -15 -46 -3 -24 7 -31 7 -26 -2 5 -8 3
-8 -7 1 -7 6 -21 12 -31 12 -21 0 -24 16 -5 23 6 3 3 6 -9 6 -11 1 -27 12 -34
26 -13 25 -30 33 -30 15 0 -5 5 -10 10 -10 6 0 8 -10 5 -23 -5 -20 -1 -25 34
-37 23 -7 41 -17 41 -21 0 -4 18 -10 41 -14 52 -9 43 -18 -22 -20 -27 -1 -55
-7 -62 -14 -9 -10 -6 -11 18 -6 17 4 36 8 43 11 6 2 12 -1 12 -6 0 -6 -10 -10
-22 -11 -22 0 -22 -1 -3 -8 19 -8 19 -8 -2 -19 -12 -7 -32 -12 -45 -13 -22 0
-22 -1 -3 -9 11 -4 38 -6 60 -4 l40 4 -40 -20 c-50 -24 -91 -26 -99 -3 -5 12
-9 14 -18 5 -15 -15 -68 -16 -68 -2 0 6 -15 10 -32 10 -18 0 -41 6 -50 14 -11
8 -39 12 -73 10 -30 -2 -55 1 -55 6 0 4 9 6 19 3 16 -4 19 -1 14 19 -5 19 -4
21 8 11 8 -7 29 -15 47 -18 25 -4 32 -2 32 11 0 10 -5 14 -15 10 -9 -3 -37 3
-63 14 -26 10 -42 19 -37 20 6 0 -5 8 -22 16 -36 18 -45 39 -13 29 11 -3 28
-2 37 4 17 10 16 10 -3 11 -28 0 -36 10 -21 28 10 13 9 15 -5 9 -20 -7 -45 17
-28 28 6 3 8 11 5 16 -9 14 7 11 24 -5 10 -9 22 -12 30 -7 11 7 9 12 -9 21
-23 12 -23 13 -4 28 12 9 13 13 4 9 -9 -2 -25 2 -35 10 -19 14 -17 15 19 10
22 -4 42 -10 45 -15 9 -15 51 -25 51 -13 0 6 -6 11 -13 11 -7 0 -18 9 -25 20
-9 15 -19 19 -40 14 -21 -4 -24 -3 -12 5 12 9 13 11 1 11 -8 0 -11 3 -7 7 3 4
28 7 55 8 36 1 48 -2 44 -12 -7 -18 22 -17 36 1 10 12 6 17 -26 25 -21 6 -47
12 -58 12 -11 1 -2 5 20 8 46 7 69 -3 84 -36 6 -13 19 -23 29 -23 10 0 34 -13
52 -30 18 -16 37 -30 41 -30 16 0 18 18 4 24 -8 3 -14 11 -13 18 2 7 -1 13 -7
13 -12 2 -85 34 -85 38 0 1 8 3 18 3 9 0 27 4 40 8 16 5 22 3 22 -7 0 -8 8
-17 18 -19 20 -6 42 14 42 37 0 9 4 14 9 10 5 -3 12 -1 16 5 3 5 9 10 12 10 3
0 0 -7 -8 -16z m-670 -1110 c24 -12 31 -21 28 -35 -3 -11 -1 -19 3 -19 14 0
22 -57 11 -77 -5 -10 -19 -19 -32 -20 -26 -2 -62 15 -55 26 3 4 -4 18 -15 29
-22 24 -18 63 9 95 18 21 12 20 51 1z m-2955 -335 c11 -17 15 -18 18 -5 3 13
8 13 47 -4 24 -11 58 -20 77 -20 19 0 34 -4 34 -10 0 -5 -18 -10 -40 -10 -22
0 -40 -4 -40 -10 0 -6 -46 -10 -119 -10 -71 0 -121 -4 -123 -10 -2 -6 -21 2
-42 17 l-39 28 42 3 c33 3 41 7 41 23 0 16 7 19 40 19 31 0 40 -4 40 -17 0
-14 3 -13 16 5 19 27 29 28 48 1z"/>
<path d="M7180 7842 l-23 -19 51 -64 c28 -35 65 -70 82 -77 17 -8 28 -18 25
-23 -4 -5 0 -6 8 -3 8 3 20 -2 27 -11 7 -8 18 -15 24 -15 24 0 106 -135 106
-175 0 -13 9 -33 21 -46 11 -13 18 -18 14 -11 -3 6 -6 31 -7 55 0 39 -30 107
-47 107 -3 0 -15 17 -26 38 -11 20 -29 45 -40 56 -11 10 -19 22 -17 27 1 5 -2
9 -8 9 -5 0 -10 7 -10 15 0 8 -6 15 -14 15 -17 0 -28 24 -20 44 4 10 -6 20
-30 30 -20 8 -36 22 -36 30 0 9 -4 16 -10 16 -5 0 -7 -7 -4 -15 7 -18 -31 -21
-42 -3 -5 8 -2 9 11 4 16 -6 16 -4 4 11 -7 10 -14 19 -15 21 -1 1 -12 -6 -24
-16z"/>
<path d="M7674 7598 c-10 -13 -19 -30 -19 -38 0 -8 -14 -24 -32 -36 -33 -22
-34 -34 -1 -34 10 0 18 -7 18 -15 0 -8 5 -15 10 -15 6 0 10 -5 10 -11 0 -6 -6
-9 -13 -6 -9 3 -13 -12 -15 -57 -2 -33 -8 -83 -13 -110 -5 -27 -7 -52 -4 -54
3 -3 -2 -13 -11 -23 -14 -16 -14 -17 3 -15 12 2 19 13 21 32 2 16 10 33 18 37
9 5 12 17 8 33 -4 14 -2 24 5 24 6 0 8 -7 5 -15 -7 -16 22 -21 41 -7 19 13 37
93 33 151 -3 49 -1 56 15 53 9 -2 17 2 17 8 0 6 -4 8 -10 5 -5 -3 -10 3 -10
14 0 12 -4 21 -9 21 -5 0 -13 17 -18 37 -10 45 -23 50 -49 21z"/>
<path d="M2043 5552 c-13 -15 -23 -32 -23 -39 0 -6 -6 -13 -12 -15 -9 -3 -8
-9 5 -22 9 -10 17 -26 17 -37 0 -14 7 -19 25 -19 14 0 25 -4 25 -10 0 -5 16
-10 36 -10 19 0 43 -4 52 -9 27 -15 72 -2 72 21 0 10 -4 16 -10 13 -6 -4 -10
10 -10 34 0 23 5 41 10 41 9 0 14 -14 11 -32 -2 -13 16 -9 29 7 25 30 -60 85
-130 85 -22 0 -40 5 -40 10 0 20 -36 9 -57 -18z"/>
<path d="M8621 5377 c-15 -15 -15 -17 21 -94 44 -94 47 -149 13 -248 -24 -72
-41 -112 -118 -290 -54 -125 -170 -341 -243 -450 -44 -66 -98 -151 -120 -190
-23 -38 -79 -135 -126 -215 -138 -234 -191 -327 -268 -470 -98 -182 -102 -188
-109 -168 -7 17 -121 143 -121 133 0 -4 11 -21 25 -39 14 -18 23 -35 20 -38
-3 -2 13 -22 36 -43 32 -29 39 -42 35 -61 -10 -40 -263 -628 -360 -839 -13
-27 -45 -99 -71 -160 -26 -60 -62 -139 -80 -175 -18 -36 -56 -123 -84 -195
-29 -71 -56 -139 -61 -150 -61 -138 -252 -610 -377 -930 -19 -49 -93 -236
-164 -413 -71 -178 -129 -328 -129 -333 0 -5 1353 -9 3353 -9 l3352 0 -11 147
c-7 82 -17 191 -23 243 -13 110 -8 513 10 725 13 170 3 502 -21 630 -62 339
-157 579 -275 700 -53 54 -137 100 -208 114 -23 4 -60 19 -82 33 -22 14 -51
29 -65 33 -14 4 -54 24 -90 44 -36 20 -81 45 -100 55 -19 10 -48 26 -65 35
-16 9 -61 34 -100 55 -38 22 -95 54 -125 72 -63 37 -116 66 -285 154 -180 94
-354 189 -410 225 -27 17 -82 51 -122 74 -40 24 -77 49 -84 57 -6 8 -16 14
-21 14 -5 0 -64 39 -130 88 -66 48 -146 105 -177 126 -31 22 -78 57 -106 78
-94 73 -690 464 -882 579 -42 26 -84 55 -92 66 -9 11 -27 34 -41 51 -14 18
-30 32 -36 32 -13 0 -160 132 -189 169 -10 15 -22 28 -26 31 -8 6 -183 220
-229 280 -19 25 -42 54 -52 65 -46 52 -64 77 -123 165 -74 111 -120 158 -192
194 -48 24 -84 53 -49 40 9 -3 16 -4 16 -1 0 11 -28 15 -39 4z"/>
<path d="M4850 4394 c0 -5 -7 -50 -15 -100 -18 -114 -48 -211 -91 -296 l-34
-68 34 0 c34 0 35 1 46 54 13 62 45 110 56 83 3 -10 15 -15 27 -13 19 2 24 13
32 72 7 41 14 63 18 54 4 -8 5 -3 2 11 -3 17 1 31 10 39 13 10 15 8 15 -13 0
-14 5 -29 10 -32 6 -3 10 -15 10 -26 0 -11 -5 -17 -10 -14 -7 4 -7 -2 -1 -17
5 -13 15 -43 21 -68 12 -42 13 -44 23 -22 8 18 5 41 -16 105 -15 45 -31 113
-36 151 -6 38 -16 75 -23 82 -16 16 -78 30 -78 18z"/>
<path d="M5067 3848 c7 -56 -2 -61 -23 -15 l-14 32 6 -40 c4 -29 3 -36 -5 -25
-5 8 -12 12 -14 10 -9 -12 -24 -80 -18 -80 5 0 11 -33 14 -74 8 -89 32 -147
85 -204 l40 -44 41 28 c38 25 40 28 26 44 -8 9 -15 22 -15 28 0 7 -5 12 -11
12 -6 0 -9 7 -6 15 4 8 2 17 -2 19 -5 3 -11 24 -15 47 -4 23 -13 54 -21 69
-13 25 -38 99 -63 190 -9 32 -10 32 -5 -12z"/>
<path d="M5051 3409 c-1 -3 15 -50 35 -105 19 -54 40 -112 46 -129 5 -16 12
-37 15 -45 3 -8 7 -21 9 -29 1 -7 7 -18 13 -24 6 -6 11 -20 11 -32 0 -55 107
-168 205 -217 33 -17 81 -46 108 -64 26 -19 51 -34 55 -34 5 0 17 -9 27 -20 9
-10 21 -18 25 -17 10 3 110 -120 110 -135 0 -6 3 -8 6 -5 4 3 -11 37 -33 74
-22 37 -46 79 -53 93 -12 25 -11 25 12 -2 19 -23 25 -25 35 -13 10 11 4 18
-33 40 -66 39 -304 236 -365 303 -63 69 -72 91 -88 207 -19 137 -19 139 -36
125 -8 -7 -12 -16 -9 -21 3 -5 1 -16 -4 -26 -9 -15 -13 -13 -38 13 -16 16 -34
39 -41 49 -6 11 -12 17 -12 14z"/>
<path d="M4726 2458 c-3 -46 -8 -148 -11 -228 -3 -80 -10 -244 -15 -365 -27
-616 -51 -1461 -48 -1670 2 -175 6 -88 18 450 6 264 17 615 25 780 24 509 46
1115 40 1115 -2 0 -6 -37 -9 -82z"/>
</g>
</svg>
